<?xml version="1.0" encoding="UTF-8"?>
<svg version="1.1" xmlns="http://www.w3.org/2000/svg" width="1024" height="1024">
<path d="M0 0 C337.92 0 675.84 0 1024 0 C1024 337.92 1024 675.84 1024 1024 C686.08 1024 348.16 1024 0 1024 C0 686.08 0 348.16 0 0 Z " fill="#162836" transform="translate(0,0)"/>
<path d="M0 0 C1.3296573 0.43446038 2.6594986 0.86835794 3.98950195 1.30175781 C7.78695022 2.5407895 11.58204039 3.786914 15.37683105 5.03405762 C23.0821809 7.56455078 30.79144119 10.08313705 38.50021362 12.60317993 C40.58345126 13.28440859 42.66656087 13.96602891 44.74954224 14.64804077 C56.42916387 18.4718286 68.11714673 22.26595072 79.83203125 25.98046875 C80.86003342 26.30647064 81.88803558 26.63247253 82.94718933 26.96835327 C87.86109412 28.52513343 92.77660267 30.07665086 97.6940918 31.62207031 C99.44190081 32.17380824 101.18970389 32.72556495 102.9375 33.27734375 C103.73916092 33.52759811 104.54082184 33.77785248 105.36677551 34.03569031 C110.82455089 35.76205089 110.82455089 35.76205089 111.9375 36.875 C112.03767506 38.40328849 112.06825576 39.93619296 112.07121277 41.46775818 C112.07547775 42.4612326 112.07974274 43.45470703 112.08413696 44.47828674 C112.08368378 45.57785202 112.08323059 46.6774173 112.08276367 47.81030273 C112.08780159 49.53742493 112.08780159 49.53742493 112.09294128 51.29943848 C112.10249728 55.13583435 112.10439769 58.97218668 112.10546875 62.80859375 C112.10786946 64.80239928 112.11027188 66.79620483 112.11292917 68.79001004 C112.12109032 75.07949232 112.12351248 81.36896029 112.12280273 87.65844727 C112.12220641 94.10593602 112.1326645 100.55333988 112.1485464 107.00080723 C112.16173569 112.55690536 112.16698168 118.11297623 112.16634732 123.66908985 C112.16609497 126.97733336 112.16974768 130.28548628 112.17952538 133.59371758 C112.22766714 151.58848536 111.90894799 169.2156283 107.75 186.8125 C107.53641846 187.72797607 107.32283691 188.64345215 107.1027832 189.58666992 C94.20453597 242.53760974 56.34879912 283.67942383 10.9375 311.875 C5.36602427 315.23518308 -0.27389965 318.47134081 -5.94042969 321.66796875 C-7.82003578 322.73708662 -9.68209475 323.82971888 -11.5390625 324.9375 C-12.97378906 325.7728125 -12.97378906 325.7728125 -14.4375 326.625 C-15.22898437 327.09421875 -16.02046875 327.5634375 -16.8359375 328.046875 C-20.41862994 329.37938517 -23.16354105 328.28200621 -26.56347656 326.74267578 C-27.43456055 326.2732959 -28.30564453 325.80391602 -29.203125 325.3203125 C-30.1828125 324.7936499 -31.1625 324.2669873 -32.171875 323.72436523 C-33.72648437 322.87080444 -33.72648437 322.87080444 -35.3125 322 C-36.385 321.41355713 -37.4575 320.82711426 -38.5625 320.22290039 C-73.12171972 301.12180056 -108.73473267 274.44078158 -129.0625 239.875 C-129.0625 239.545 -129.0625 239.215 -129.0625 238.875 C-88.8025 238.875 -48.5425 238.875 -7.0625 238.875 C-5.0825 242.505 -3.1025 246.135 -1.0625 249.875 C5.9727738 257.39546509 14.55388183 262.03103626 25 262.4375 C34.11618364 262.01932644 43.49238828 258.72334 49.74609375 251.90234375 C57.82688002 242.10796039 59.01792239 233.30606681 57.9375 220.875 C56.12090893 212.27189889 50.76388542 205.19561657 43.55859375 200.23828125 C34.71358597 195.15276607 24.12503782 194.10092508 14.16796875 196.55859375 C11.93349566 197.5016901 9.97790399 198.5665245 7.9375 199.875 C7.24269531 200.2875 6.54789063 200.7 5.83203125 201.125 C-0.53750154 205.33152072 -3.71231475 211.17462949 -7.0625 217.875 C-51.2825 217.875 -95.5025 217.875 -141.0625 217.875 C-150.28578244 192.51097328 -150.28578244 192.51097328 -152.0625 183.6875 C-152.36607422 182.30014648 -152.36607422 182.30014648 -152.67578125 180.88476562 C-153.40899357 177.46560206 -154.0625 174.38062868 -154.0625 170.875 C-142.823178 170.64318011 -131.5844255 170.46555954 -120.34319878 170.35687828 C-115.12312191 170.3047118 -109.90468165 170.23397833 -104.68554688 170.12060547 C-99.64740087 170.01185058 -94.61082731 169.95213972 -89.57159805 169.92622757 C-87.65045533 169.90776618 -85.72939769 169.8717113 -83.80892563 169.81769943 C-68.7043369 169.40983632 -68.7043369 169.40983632 -64.60650635 173.06671143 C-63.06616422 175.63387064 -62.06372855 178.06416602 -61.0625 180.875 C-55.35642629 187.43698477 -49.07146578 191.39054307 -40.30078125 192.09765625 C-31.05916309 192.36981658 -23.54718982 191.27307585 -16.25 185.3125 C-9.40704839 178.74811102 -6.10133745 170.71934361 -5.6875 161.3125 C-5.78740751 152.94524574 -9.51397562 144.42592997 -15.2578125 138.33984375 C-23.06969801 131.99902759 -32.20287846 129.90727043 -42.0625 130.875 C-50.17628202 132.66665088 -56.74824915 136.43475937 -62.0625 142.875 C-63.3825 145.515 -64.7025 148.155 -66.0625 150.875 C-95.7625 150.875 -125.4625 150.875 -156.0625 150.875 C-156.0625 134.045 -156.0625 117.215 -156.0625 99.875 C-106.8925 99.875 -57.7225 99.875 -7.0625 99.875 C-6.0725 101.855 -5.0825 103.835 -4.0625 105.875 C1.0218592 113.33295924 7.48876839 117.05875613 15.9375 119.875 C28.22605804 120.67500218 37.82618837 120.27350727 47.75 112.25 C53.5052272 106.82073257 57.62387098 99.40462561 58.17578125 91.43359375 C58.47220685 80.57303604 57.36090684 72.72049036 50.25 64.0625 C44.32666535 57.80701574 37.74043271 54.17672904 29.14453125 53.63671875 C20.98150693 53.43062397 13.99874052 53.26357762 6.9375 57.875 C6.24398437 58.2875 5.55046875 58.7 4.8359375 59.125 C-2.8204372 64.17189868 -6.22695793 71.3683738 -9.0625 79.875 C-57.5725 79.875 -106.0825 79.875 -156.0625 79.875 C-156.0625 65.355 -156.0625 50.835 -156.0625 35.875 C-146.33415591 32.76823616 -136.60527706 29.66319817 -126.875 26.5625 C-126.14243484 26.32904751 -125.40986969 26.09559502 -124.65510559 25.85506821 C-99.11344893 17.71683649 -73.53912411 9.68799952 -47.93676758 1.74291992 C-46.09230797 1.17037979 -46.09230797 1.17037979 -44.21058655 0.58627319 C-41.92625213 -0.12251043 -39.64171083 -0.83062775 -37.35691833 -1.53793335 C-36.34678177 -1.85114532 -35.3366452 -2.1643573 -34.29589844 -2.48706055 C-33.37184708 -2.77198364 -32.44779572 -3.05690674 -31.4957428 -3.35046387 C-29.5208065 -3.97911446 -27.56720296 -4.67450283 -25.62182617 -5.3894043 C-17.72639139 -7.65869219 -7.45914668 -2.46496078 0 0 Z " fill="#172836" transform="translate(533.0625,262.125)"/>
<path d="M0 0 C1.96296001 0.6226862 3.92651898 1.24348692 5.890625 1.86254883 C8.01133142 2.55792605 10.13108141 3.25622511 12.25 3.95703125 C13.4049144 4.33645874 14.5598288 4.71588623 15.7497406 5.10681152 C18.85677854 6.12799066 21.96303322 7.1515104 25.06898117 8.17599869 C28.33311222 9.25191968 31.59832916 10.32453358 34.86352539 11.3972168 C36.18403761 11.83106583 37.50454847 12.26491898 38.82505798 12.69877625 C39.80520024 13.02079797 39.80520024 13.02079797 40.80514336 13.34932518 C42.78555557 14.00013123 44.76584943 14.6512962 46.74610901 15.30256653 C57.96979757 18.99344295 69.20162106 22.65892866 80.4375 26.3125 C82.13795178 26.86584754 83.83839129 27.41923278 85.53881836 27.97265625 C93.70692615 30.63056879 101.87623343 33.28476639 110.04655457 35.93586731 C114.07933221 37.24468919 118.11172732 38.55468712 122.14407349 39.86483765 C125.00443846 40.79364644 127.86537031 41.72069415 130.72631836 42.64770508 C132.4542952 43.20905209 134.1822428 43.77048913 135.91015625 44.33203125 C136.70370514 44.58859497 137.49725403 44.84515869 138.31484985 45.10949707 C143.77228305 46.88614153 143.77228305 46.88614153 146 48 C146.09395893 67.29068353 146.16422934 86.58131982 146.20724869 105.87218571 C146.22776528 114.83177967 146.25567381 123.79123045 146.30175781 132.75073242 C146.34196323 140.57115219 146.36751172 148.39146812 146.37635398 156.21198839 C146.38151251 160.34266471 146.39340091 164.47304433 146.42292023 168.60362434 C146.84285192 229.80888399 126.31762853 279.7191963 83.51464844 323.65405273 C77.68772962 329.55329147 71.59510489 334.96335981 65 340 C63.99670654 340.76932861 63.99670654 340.76932861 62.97314453 341.55419922 C46.55965395 354.06745442 29.40694103 365.00174456 11.23925781 374.78125 C8.91270502 376.04751162 6.60847375 377.34908302 4.3046875 378.65625 C2.78681123 379.50063468 1.26859412 380.34440702 -0.25 381.1875 C-0.94109863 381.58670654 -1.63219727 381.98591309 -2.34423828 382.3972168 C-5.22395829 383.96961622 -7.51745938 384.9879699 -10.8203125 385.0703125 C-15.68498704 383.43281763 -20.10441779 381.10226062 -24.625 378.6875 C-25.64045898 378.14988037 -26.65591797 377.61226074 -27.70214844 377.05834961 C-55.45633823 362.21906911 -81.24247704 344.81129272 -104 323 C-104.92014893 322.12867432 -104.92014893 322.12867432 -105.85888672 321.23974609 C-140.03556702 288.7310428 -166.77323259 240.80265905 -168.08954048 192.72990036 C-168.12255657 188.91264359 -168.12396192 185.09612345 -168.11352539 181.27880859 C-168.11324278 179.81922406 -168.1134027 178.35963938 -168.1139679 176.90005493 C-168.11425297 172.96687557 -168.10840325 169.03372716 -168.10139394 165.10055494 C-168.095112 160.97927987 -168.09455279 156.85800397 -168.09336853 152.73672485 C-168.09026942 144.94553829 -168.08207529 137.15436588 -168.07201904 129.36318552 C-168.06081365 120.487671 -168.05533633 111.61215577 -168.05032361 102.73663592 C-168.0398914 84.49108261 -168.02231963 66.24554245 -168 48 C-163.17356681 46.38280409 -158.34641325 44.76778129 -153.51864624 43.15457153 C-151.88430249 42.60813787 -150.25014017 42.06116118 -148.61618042 41.51358032 C-137.65625821 37.84116111 -126.66935429 34.28570142 -115.625 30.875 C-105.75228047 27.81894778 -95.91913007 24.67606284 -86.125 21.375 C-69.82420368 15.88119931 -53.43417495 10.66915574 -37.04541016 5.44482422 C-35.98764877 5.10751785 -34.92988739 4.77021149 -33.84007263 4.42268372 C-31.85253946 3.78912384 -29.86481118 3.15617557 -27.87684631 2.52397156 C-26.97220139 2.23577042 -26.06755646 1.94756927 -25.13549805 1.65063477 C-23.82915909 1.24556198 -23.82915909 1.24556198 -22.49642944 0.83230591 C-20.00965728 0.04297524 -20.00965728 0.04297524 -17.71865845 -0.98587036 C-11.07887633 -3.74787187 -6.61795602 -2.33050549 0 0 Z M-16.36694336 24.27148438 C-17.26536957 24.55526947 -18.16379578 24.83905457 -19.08944702 25.13143921 C-20.07957794 25.44900177 -21.06970886 25.76656433 -22.08984375 26.09375 C-23.14555573 26.42847321 -24.2012677 26.76319641 -25.28897095 27.10806274 C-28.83973776 28.23479169 -32.38857663 29.36747934 -35.9375 30.5 C-38.43010752 31.29197503 -40.92286818 32.08346822 -43.41577148 32.87451172 C-47.45620549 34.1567183 -51.49650649 35.43933711 -55.53620911 36.72384644 C-66.91824319 40.34266625 -78.30579428 43.94387239 -89.6953125 47.5390625 C-90.56367548 47.81317207 -91.43203846 48.08728165 -92.32671547 48.36969757 C-96.67943775 49.74362088 -101.03222362 51.11734256 -105.38504028 52.4909668 C-113.71672856 55.12031639 -122.04777075 57.75171208 -130.37890625 60.3828125 C-135.20386719 61.90648437 -140.02882813 63.43015625 -145 65 C-145 79.52 -145 94.04 -145 109 C-96.49 109 -47.98 109 2 109 C3.65 105.04 5.3 101.08 7 97 C11.6915867 89.96261995 18.84318876 85.15016306 27 83 C39.20730661 81.96262019 48.99066816 82.68394447 58.8125 90.625 C64.5677272 96.05426743 68.68637098 103.47037439 69.23828125 111.44140625 C69.53470685 122.30196396 68.42340684 130.15450964 61.3125 138.8125 C55.40280998 145.05357451 48.82043873 148.69433808 40.2421875 149.23828125 C28.32334298 149.54277229 19.69314081 148.27904771 10.69140625 139.8046875 C7.60066999 136.50695043 5.44337061 133.33011183 4 129 C-45.17 129 -94.34 129 -145 129 C-145 145.83 -145 162.66 -145 180 C-115.3 180 -85.6 180 -55 180 C-53.35 177.03 -51.7 174.06 -50 171 C-44.52882149 164.29376643 -36.92302123 160.79093455 -28.42578125 159.65625 C-19.73368709 159.32876137 -11.60937558 161.61794614 -4.8203125 167.12890625 C1.15718036 173.27315321 4.98059362 181.20009173 5.3125 189.75 C5.03163512 200.75329459 0.78788381 208.10330065 -6.75 215.8125 C-14.44185751 220.98971179 -22.89629484 221.89806821 -32 221 C-40.55778064 219.28578618 -46.94771103 215.11866169 -51.859375 207.94140625 C-53.37164817 205.36743445 -54.66491192 202.67017617 -56 200 C-84.71 200 -113.42 200 -143 200 C-141.74064972 208.18577685 -140.50686815 215.66380579 -138.1875 223.5 C-137.95224609 224.33402344 -137.71699219 225.16804687 -137.47460938 226.02734375 C-135.3818852 233.24477044 -132.72436361 239.91665462 -130 247 C-85.78 247 -41.56 247 4 247 C5.98 243.37 7.96 239.74 10 236 C17.21919065 228.64712064 25.21891431 224.78290953 35.5625 224.6875 C46.05630039 224.6875 53.28525478 227.41080229 61.01953125 234.70703125 C68.50416683 243.37267442 69.68182918 253.05473463 69.17041016 264.04394531 C68.42753849 272.57100519 63.4159982 279.60545425 57 285 C48.25074859 290.07045137 40.07247115 292.02755933 30 291 C21.78150632 288.80976632 14.35040596 284.70597907 9 278 C6.525 273.05 6.525 273.05 4 268 C-36.26 268 -76.52 268 -118 268 C-111.16771904 279.95649168 -102.51359345 290.1112402 -93 300 C-92.48002441 300.54188965 -91.96004883 301.0837793 -91.42431641 301.64208984 C-84.34948352 308.97225505 -77.09868234 315.79334605 -69 322 C-68.03876221 322.75120117 -68.03876221 322.75120117 -67.05810547 323.51757812 C-54.91062023 332.97647952 -42.17123692 340.96272719 -28.73779297 348.46826172 C-26.25332269 349.85827122 -23.78373093 351.27128197 -21.31640625 352.69140625 C-19.98282299 353.44197667 -18.64827526 354.19083762 -17.3125 354.9375 C-16.19488281 355.56527344 -15.07726562 356.19304687 -13.92578125 356.83984375 C-10.55356436 358.17702455 -9.42699052 357.93141681 -6 357 C-3.88698472 356.10631127 -3.88698472 356.10631127 -1.83984375 354.953125 C-1.05641602 354.52717041 -0.27298828 354.10121582 0.53417969 353.66235352 C1.36852539 353.19627686 2.20287109 352.7302002 3.0625 352.25 C3.93938477 351.76265381 4.81626953 351.27530762 5.71972656 350.77319336 C35.09985747 334.2147696 63.08870348 313.6937246 84 287 C84.81339844 285.99195313 85.62679687 284.98390625 86.46484375 283.9453125 C104.18624823 261.77643808 114.62100189 236.1767169 120.3125 208.5 C120.47210205 207.72398437 120.6317041 206.94796875 120.79614258 206.1484375 C122.80378802 195.68340548 123.14864267 185.1603326 123.11352539 174.53027344 C123.11374443 172.7573719 123.11374443 172.7573719 123.1139679 170.94865417 C123.11327747 167.08554171 123.10552623 163.22247893 123.09765625 159.359375 C123.0952291 156.66367622 123.09431727 153.96797748 123.09336853 151.27227783 C123.09027691 144.92966933 123.08209315 138.58707834 123.07201904 132.24447751 C123.06079004 125.01580233 123.05533045 117.78712625 123.05032361 110.5584445 C123.03990841 95.70562025 123.02235154 80.85281129 123 66 C115.38625304 62.89579081 115.38625304 62.89579081 107.62866211 60.17919922 C106.69017426 59.87657669 105.7516864 59.57395416 104.78475952 59.26216125 C103.29608871 58.78821175 103.29608871 58.78821175 101.77734375 58.3046875 C100.70223541 57.95935471 99.62712708 57.61402191 98.5194397 57.25822449 C94.99328408 56.12683354 91.46544478 55.0007983 87.9375 53.875 C85.46795796 53.08408911 82.99847653 52.29298897 80.52905273 51.50170898 C59.77816352 44.85957558 39.00367501 38.29167565 18.22045898 31.75146484 C17.06420013 31.38741043 15.90794128 31.02335602 14.71664429 30.64826965 C12.57130039 29.97298387 10.42574866 29.2983578 8.27993774 28.6245575 C3.11303594 26.99835305 -2.029301 25.33061785 -7.13832092 23.5297699 C-10.55265667 22.55816726 -13.09002861 23.22779354 -16.36694336 24.27148438 Z " fill="#F7F8F7" transform="translate(522,233)"/>
<path d="M0 0 C8.353125 -0.0825 16.70625 -0.165 25.3125 -0.25 C27.92712158 -0.28641602 30.54174316 -0.32283203 33.2355957 -0.36035156 C35.34064924 -0.37204938 37.44571192 -0.3822386 39.55078125 -0.390625 C40.61727905 -0.41108887 41.68377686 -0.43155273 42.78259277 -0.45263672 C53.00730446 -0.45732427 61.7563673 1.88518643 69.27734375 9.06640625 C75.61667519 16.18198236 77.40547007 22.3938716 77.359375 31.8203125 C76.78771839 36.87823075 74.57502313 40.69268857 72 45 C71.32244198 46.32783182 70.65200222 47.6594347 70 49 C70.47050781 49.4846875 70.94101562 49.969375 71.42578125 50.46875 C77.99460223 57.54077259 80.66772213 63.38665085 80.34375 73.1328125 C79.28949163 81.92628572 75.7141275 89.1960391 69 95 C59.87548529 101.33063676 51.58462731 102.29556835 40.72265625 102.1953125 C39.68782104 102.19329834 38.65298584 102.19128418 37.58679199 102.18920898 C33.74531582 102.17879657 29.90390315 102.1508742 26.0625 102.125 C13.1615625 102.063125 13.1615625 102.063125 0 102 C0 68.34 0 34.68 0 0 Z " fill="#F7F8F8" transform="translate(417,678)"/>
<path d="M0 0 C8.37375 -0.061875 16.7475 -0.12375 25.375 -0.1875 C27.99872559 -0.21481201 30.62245117 -0.24212402 33.32568359 -0.27026367 C35.43326356 -0.27903538 37.54084866 -0.28667769 39.6484375 -0.29296875 C40.72005127 -0.30831665 41.79166504 -0.32366455 42.89575195 -0.33947754 C53.57608365 -0.34314944 62.01024891 1.73490076 70 9 C76.6530441 15.83785088 79.32887658 24.94021018 79.21875 34.2734375 C78.3870978 44.63938814 73.77488836 51.67196269 66.1953125 58.484375 C63.58475164 60.28668392 61.03295391 61.11862878 58 62 C63.25631153 71.44865667 68.8294171 80.66179565 74.60620117 89.80151367 C75.14607666 90.66236572 75.68595215 91.52321777 76.2421875 92.41015625 C76.7254248 93.17465088 77.20866211 93.93914551 77.70654297 94.72680664 C79.04989542 97.08768898 80.0495264 99.45839434 81 102 C73.75067287 103.53612474 66.06129457 104.75989823 59 102 C53.02007461 96.34236112 49.78438733 88.46891691 46.453125 81.06738281 C44.60819993 77.17295428 42.41080253 73.57231719 40.1015625 69.93896484 C39 68 39 68 39 66 C32.07 66 25.14 66 18 66 C18 77.88 18 89.76 18 102 C12.06 102 6.12 102 0 102 C0 68.34 0 34.68 0 0 Z " fill="#F7F7F7" transform="translate(532,678)"/>
<path d="M0 0 C6.27 0 12.54 0 19 0 C19.01458252 1.94696777 19.02916504 3.89393555 19.04418945 5.89990234 C19.09604369 12.36604719 19.16138306 18.8319485 19.23571491 25.29787254 C19.28025321 29.21434812 19.31954457 33.13072363 19.34643555 37.04736328 C19.37263515 40.83419095 19.41315185 44.62063006 19.46318626 48.40721512 C19.47974333 49.84468338 19.49132655 51.28221867 19.49761391 52.71976852 C19.54230997 62.00820431 19.87911761 70.68294112 24.6875 78.875 C31.0887615 84.75724029 37.01557568 85.65476264 45.6484375 85.38671875 C51.49252754 84.71240067 55.13957813 82.8101402 59.3125 78.75 C64.54117496 70.22919636 64.47088811 62.04356713 64.51171875 52.34375 C64.52858691 50.83059247 64.54674 49.31744878 64.56611633 47.80432129 C64.61339093 43.8457471 64.64334532 39.88722901 64.66955566 35.9284668 C64.69947575 31.87928189 64.7459664 27.83028984 64.79101562 23.78125 C64.87679203 15.854246 64.94271661 7.92726116 65 0 C71.27 0 77.54 0 84 0 C84.06810195 8.91960919 84.12300268 17.8390423 84.15543652 26.75885391 C84.17101253 30.90183516 84.19210097 35.04462745 84.22631836 39.1875 C84.25920267 43.1945961 84.27691345 47.20151185 84.28463173 51.2087326 C84.2901236 52.72835881 84.30084592 54.24797649 84.31719017 55.76752472 C84.46400514 69.99869554 83.04156118 82.98999274 73.18359375 94.03515625 C63.20415393 103.53074444 50.74283021 104.49761723 37.625 104.2734375 C26.03613997 103.792947 17.15614337 99.51502169 9.2578125 91.15625 C2.46625194 82.91176853 -0.13271975 72.59770565 -0.11352539 62.09838867 C-0.11367142 61.42466217 -0.11381744 60.75093567 -0.1139679 60.05679321 C-0.11327472 57.84381826 -0.10551036 55.63092889 -0.09765625 53.41796875 C-0.09578995 51.87811835 -0.09436705 50.33826735 -0.09336853 48.79841614 C-0.08956002 44.75589341 -0.07974402 40.71340691 -0.06866455 36.67089844 C-0.05841455 32.54167165 -0.05386323 28.41243898 -0.04882812 24.28320312 C-0.0381202 16.18878365 -0.02053695 8.09440051 0 0 Z " fill="#F8F8F8" transform="translate(643,678)"/>
<path d="M0 0 C2.21766744 1.89533205 4.06556464 3.80415445 6 6 C4.42219077 9.71045247 2.09296752 12.29906384 -0.625 15.25 C-1.44226563 16.14203125 -2.25953125 17.0340625 -3.1015625 17.953125 C-3.72804688 18.62859375 -4.35453125 19.3040625 -5 20 C-7.42540288 18.85112495 -9.234142 17.80382697 -11.3125 16.0625 C-17.1912084 11.55093309 -22.34895954 10.50958335 -29.5625 10.625 C-30.65594727 10.60759766 -30.65594727 10.60759766 -31.77148438 10.58984375 C-37.5038197 10.62080146 -41.8182091 11.8182091 -46 16 C-46.69545704 21.39513259 -46.69545704 21.39513259 -44.53125 26.1015625 C-40.97835767 28.76623175 -37.40598694 29.50757022 -33.125 30.5 C-31.41128543 30.92769321 -29.6977449 31.35608434 -27.984375 31.78515625 C-26.32312662 32.19096463 -24.66167971 32.59596144 -23 33 C-11.30520256 35.85337912 -0.81509125 39.40563088 6 50 C10.14696718 58.1949614 10.24025008 67.04835967 8.37890625 75.98046875 C5.67973374 83.71809662 0.19003772 89.52521603 -7 93.375 C-20.68304619 99.32186238 -35.87083682 98.2484081 -49.609375 93.00390625 C-57.19889298 89.59805113 -65.69965435 83.91006757 -69 76 C-67.4324482 74.2978302 -65.84540216 72.61359446 -64.25 70.9375 C-63.36828125 69.99777344 -62.4865625 69.05804687 -61.578125 68.08984375 C-59 66 -59 66 -56.8984375 65.984375 C-54.67823155 67.1721395 -53.16148625 68.53741685 -51.375 70.3125 C-43.26532784 77.5309994 -35.37882858 78.44394389 -24.83203125 78.43359375 C-19.9581926 77.88211965 -15.96492895 76.63744079 -12.125 73.4375 C-9.78397851 70.44619476 -9.64690295 67.79108354 -9.7421875 64.02734375 C-10.18860329 60.51689235 -11.28959458 59.26917663 -14 57 C-20.72277664 53.54560884 -28.25000452 52.22062162 -35.5625 50.5625 C-47.25285407 47.89346004 -55.99802454 44.94718813 -63.25 34.875 C-67.27533527 28.26194919 -66.8367 20.10387003 -65.609375 12.6171875 C-63.17265291 4.90090088 -57.0390727 -1.2498502 -50 -4.9375 C-33.52352828 -12.18814765 -14.90628458 -10.15673312 0 0 Z " fill="#F6F7F6" transform="translate(827,685)"/>
<path d="M0 0 C2.52299532 2.18513334 4.81458153 4.47893705 7 7 C6.07038578 8.15224028 5.1309875 9.29659176 4.1875 10.4375 C3.66542969 11.07558594 3.14335937 11.71367188 2.60546875 12.37109375 C1 14 1 14 -2 15 C-3.20882096 17.00016466 -3.20882096 17.00016466 -4 19 C-8.2072745 16.94597683 -12.2630884 14.63241325 -16.34375 12.33984375 C-23.81318373 8.5721735 -33.42867747 8.83095765 -41.40625 10.87109375 C-50.28068713 14.28864845 -55.70059868 18.79162068 -59.9375 27.3125 C-63.86852578 37.67374677 -63.74948516 50.57745416 -59.2421875 60.7421875 C-54.49724432 69.36664398 -47.30851281 73.70146584 -37.92578125 76.65234375 C-27.24025177 78.58137443 -18.11390995 76.20066725 -9.26171875 70.2421875 C-7 69 -7 69 -3 69 C-0.421875 71.1875 -0.421875 71.1875 2.25 74 C3.14203125 74.928125 4.0340625 75.85625 4.953125 76.8125 C5.62859375 77.534375 6.3040625 78.25625 7 79 C2.3186206 87.71962999 -6.00834114 91.43502495 -15.140625 94.2734375 C-29.40065572 97.89688793 -43.58257469 96.47720736 -56.75 89.8125 C-69.22280608 82.24055441 -78.30135727 71.10211859 -82.25 57.0625 C-85.19797749 41.75981683 -83.1789236 26.43550942 -74.6171875 13.2734375 C-66.7017953 2.14600209 -55.77470347 -5.73004843 -42.21875 -8.5859375 C-26.87811244 -10.55936903 -13.04903301 -8.75313806 0 0 Z " fill="#F6F7F6" transform="translate(266,686)"/>
<path d="M0 0 C3.33103052 -0.3228968 6.65803862 -0.51571694 10 -0.6875 C11.40185547 -0.82575195 11.40185547 -0.82575195 12.83203125 -0.96679688 C15.87105286 -1.08368232 18.10505231 -0.95545523 21 0 C24.42464532 3.20492504 26.6250187 6.98310487 29 11 C30.38854036 13.14802639 31.78051595 15.29383574 33.17578125 17.4375 C35.27093428 20.74938496 37.35518888 24.06797292 39.43945312 27.38671875 C40.11556641 28.45535156 40.79167969 29.52398438 41.48828125 30.625 C42.09196533 31.58664062 42.69564941 32.54828125 43.31762695 33.5390625 C44.74883901 35.63260735 46.1319784 37.3018633 48 39 C49.125 37.3125 50.25 35.625 51.375 33.9375 C52.50878906 32.23681641 53.64257812 30.53613281 54.77636719 28.83544922 C55.18016602 28.22975098 55.58396484 27.62405273 56 27 C56.82552083 25.76171875 57.65104167 24.5234375 58.4765625 23.28515625 C58.890271 22.66205566 59.30397949 22.03895508 59.73022461 21.39697266 C60.58099534 20.12596927 61.44132512 18.86131567 62.31079102 17.60302734 C64.39202314 14.56771728 66.12147732 11.73750704 67.67578125 8.37890625 C69.50094516 4.68066244 70.6987958 2.50672352 74 0 C80.88372299 -1.44351966 88.05899193 -0.73400031 95 0 C88.58944002 10.20353472 81.94240121 20.25087422 75.3125 30.3125 C74.17375521 32.04226971 73.03508282 33.77208708 71.89648438 35.50195312 C69.8107166 38.66995044 67.72493789 41.83794021 65.63793945 45.00512695 C65.18901337 45.69860229 64.74008728 46.39207764 64.27755737 47.10656738 C63 49 63 49 60.68725586 51.8527832 C58.21057125 56.47251135 58.3969915 60.70046256 58.390625 65.8671875 C58.37408875 66.90191193 58.35755249 67.93663635 58.34051514 69.00271606 C58.2920983 72.29353815 58.27067758 75.58389829 58.25 78.875 C58.22183514 81.11200233 58.19190699 83.3489832 58.16015625 85.5859375 C58.08634056 91.05725364 58.03672697 96.52831428 58 102 C51.73 102 45.46 102 39 102 C39.26425781 99.33421875 39.52851563 96.6684375 39.80078125 93.921875 C42.1139632 60.97460862 30.39486539 41.6777377 10.67285156 16.19464111 C8.20951651 12.96295188 5.86882041 9.65350662 3.5625 6.30859375 C2.86253906 5.29466553 2.16257812 4.2807373 1.44140625 3.23608398 C0 1 0 1 0 0 Z " fill="#F6F7F7" transform="translate(295,678)"/>
<path d="M0 0 C4.28779954 -0.09226586 8.57210288 -0.17175694 12.86010742 -0.21972656 C14.31595584 -0.23973822 15.77172494 -0.26695677 17.22729492 -0.30175781 C32.39278344 -0.65504771 32.39278344 -0.65504771 38 4 C41.35517355 7.48770639 41.79164393 10.69282166 42.125 15.39453125 C41.92800424 19.50066154 40.73651671 22.90623568 38 26 C33.31663967 28.83821501 29.8527267 29.35823272 24.4140625 29.29296875 C23.71227875 29.28872391 23.010495 29.28447906 22.28744507 29.28010559 C20.0662244 29.26343599 17.84594212 29.22580872 15.625 29.1875 C14.11069027 29.17243788 12.59636619 29.15875216 11.08203125 29.14648438 C7.38737659 29.11613398 3.69472708 29.05739795 0 29 C0 19.43 0 9.86 0 0 Z " fill="#152531" transform="translate(550,696)"/>
<path d="M0 0 C4.28731985 -0.06919165 8.57267233 -0.12882248 12.86010742 -0.16479492 C14.31590368 -0.17980313 15.77165532 -0.20021633 17.22729492 -0.22631836 C19.33002789 -0.26305676 21.43215885 -0.2798056 23.53515625 -0.29296875 C24.797229 -0.3086792 26.05930176 -0.32438965 27.35961914 -0.34057617 C32.96309908 0.18365792 36.72252973 1.8312506 40.9375 5.6875 C43.65983854 10.05974069 43.64489771 11.9214305 43 17 C41.12613687 21.58055431 38.23991532 23.57719125 34 26 C30.37680538 27.24415146 26.85146339 27.11377739 23.046875 27.09765625 C22.38665344 27.0962413 21.72643188 27.09482635 21.04620361 27.09336853 C18.94742206 27.08779245 16.84874905 27.07524447 14.75 27.0625 C13.32291821 27.0574819 11.89583475 27.05291954 10.46875 27.04882812 C6.97909168 27.03868377 3.48966668 27.01910401 0 27 C0 18.09 0 9.18 0 0 Z " fill="#182734" transform="translate(435,736)"/>
<path d="M0 0 C4.30562412 -0.06911525 8.60930087 -0.12876967 12.91503906 -0.16479492 C14.37767075 -0.17982196 15.84025782 -0.20024955 17.30273438 -0.22631836 C19.4128728 -0.26297267 21.52241226 -0.27978676 23.6328125 -0.29296875 C24.90012207 -0.3086792 26.16743164 -0.32438965 27.47314453 -0.34057617 C32.16459023 0.11246043 35.53237426 1.53237426 38.875 4.875 C40.95463034 8.80319064 40.1568554 12.83670603 39 17 C35.86486727 20.29590877 33.38435394 21.95033756 28.83544922 22.11352539 C27.49185158 22.11336695 26.14824753 22.10771152 24.8046875 22.09765625 C24.09724396 22.0962413 23.38980042 22.09482635 22.66091919 22.09336853 C20.39890331 22.087766 18.13698602 22.07521318 15.875 22.0625 C14.34244935 22.05748532 12.80989714 22.05292236 11.27734375 22.04882812 C7.51816053 22.03864616 3.75919076 22.01907143 0 22 C0 14.74 0 7.48 0 0 Z " fill="#172633" transform="translate(435,696)"/>
<path d="M0 0 C3.00169656 1.97839092 4.72865706 3.8526764 6.75 6.8125 C7.1625 7.410625 7.575 8.00875 8 8.625 C9.74470063 13.71371017 9.28017591 18.24927381 7.125 23.0625 C4.93232516 26.91675196 2.90195603 29.00073737 -1.25 30.8125 C-6.55558003 31.57156957 -10.80853303 31.49392075 -15.6875 29.1875 C-20.22879296 24.97849676 -22.89757858 20.80808208 -23.625 14.625 C-23.05787941 8.85927399 -20.37830913 4.75301714 -16.125 0.875 C-10.90860962 -2.08095455 -5.47829317 -2.00168404 0 0 Z " fill="#172835" transform="translate(565.25,334.1875)"/>
<path d="M0 0 C4.27336023 1.62995756 7.67672654 3.99880681 10 8 C11.35593231 12.06779694 11.53075585 15.74668259 11 20 C8.34641502 25.11762818 5.46882174 28.17705942 0 30 C-5.24894167 30.39614654 -8.55342094 29.86557317 -13 27 C-17.12712836 22.53823961 -18.31579995 19.17205257 -18.21484375 13.05859375 C-17.73807026 8.49023683 -15.77437114 5.69882274 -12.4375 2.6875 C-8.3264028 -0.15864421 -4.94226076 -0.65123653 0 0 Z " fill="#182734" transform="translate(562,476)"/>
<path d="M0 0 C3.20824247 1.49717982 5.72932114 3.27518536 8 6 C9.60816725 10.82450176 9.80474053 15.1893338 7.75 19.8125 C5.14920432 23.0634946 2.94928155 24.68357282 -1 26 C-5.15286777 26.39177998 -7.48969587 26.25515206 -11.25 24.375 C-15.35422338 20.83044344 -16.76759618 17.85923054 -17.4375 12.5 C-16.79222346 7.33778768 -14.70698109 4.42248424 -10.75 1.125 C-7.06235667 -0.38358136 -3.93118436 -0.59805036 0 0 Z " fill="#162532" transform="translate(500,411)"/>
<path d="M0 0 C48.51 0 97.02 0 147 0 C144.27419016 2.72580984 142.24461035 2.94130008 138.45025158 3.12025452 C137.48224275 3.11803391 136.51423391 3.11581329 135.51689148 3.11352539 C134.40242645 3.1134549 133.28796143 3.1133844 132.13972473 3.11331177 C130.92145493 3.10814545 129.70318512 3.10297913 128.44799805 3.09765625 C126.47307289 3.09541469 124.49814773 3.0931734 122.52322257 3.09094238 C120.40213226 3.08757297 118.2810616 3.08171923 116.15997887 3.07516479 C111.73448794 3.06163063 107.30900704 3.05574544 102.88349915 3.05102539 C92.68663085 3.03898337 82.48978868 3.01695393 72.29293823 2.99479675 C62.95440199 2.97459946 53.61587468 2.95652924 44.27732116 2.94658184 C39.88203644 2.94161103 35.48679818 2.93176799 31.09153211 2.91815186 C29.01261876 2.9124742 26.93371696 2.90910822 24.85479736 2.9067688 C22.32547799 2.90390967 19.79615898 2.89746797 17.26686096 2.88668823 C16.14393646 2.88661774 15.02101196 2.88654724 13.86405945 2.88647461 C12.89491954 2.884254 11.92577963 2.88203339 10.92727184 2.87974548 C7.5999849 3.01643292 4.29662424 3.52905368 1 4 C1 18.85 1 33.7 1 49 C3.97 48.505 3.97 48.505 7 48 C9.74743669 47.94103936 12.46340678 47.93058161 15.20849609 47.97827148 C16.00916504 47.98787903 16.80983398 47.99748657 17.63476562 48.00738525 C20.26441743 48.04019801 22.89389376 48.08059701 25.5234375 48.12109375 C27.35331617 48.14541222 29.18320123 48.1692549 31.01309204 48.19264221 C35.81682634 48.25531135 40.62044693 48.32442619 45.42407227 48.39489746 C50.33083949 48.46573645 55.23768699 48.53046011 60.14453125 48.59570312 C69.76310908 48.72449398 79.38157784 48.86009655 89 49 C89 49.33 89 49.66 89 50 C59.63 50 30.26 50 0 50 C0 33.5 0 17 0 0 Z " fill="#060C13" transform="translate(377,362)"/>
<path d="M0 0 C28.71 0 57.42 0 87 0 C90 6 90 6 90 8 C89.34 8 88.68 8 88 8 C87.67 8.66 87.34 9.32 87 10 C86.01 7.03 86.01 7.03 85 4 C66.88563175 3.03440541 48.82395449 2.90429913 30.6875 3 C25.50390876 3.0265809 20.32035208 3.04649253 15.13671875 3.0625 C13.3698597 3.07494751 13.3698597 3.07494751 11.56730652 3.08764648 C9.94203789 3.09260132 9.94203789 3.09260132 8.28393555 3.09765625 C7.33262253 3.10289307 6.38130951 3.10812988 5.40116882 3.11352539 C3 3 3 3 0 2 C0 1.34 0 0.68 0 0 Z " fill="#0D141B" transform="translate(379,433)"/>
<path d="M0 0 C6.93 0 13.86 0 21 0 C22.24675325 4.98701299 22.24675325 4.98701299 21 8 C20.01 8.33 19.02 8.66 18 9 C18 8.34 18 7.68 18 7 C12.72 6.67 7.44 6.34 2 6 C2 15.9 2 25.8 2 36 C1.01 36.495 1.01 36.495 0 37 C0 24.79 0 12.58 0 0 Z " fill="#0D1822" transform="translate(550,744)"/>
<path d="M0 0 C0.66 0 1.32 0 2 0 C1.67 1.32 1.34 2.64 1 4 C0.01 4 -0.98 4 -2 4 C-2 4.99 -2 5.98 -2 7 C-2.99 7.495 -2.99 7.495 -4 8 C-3.01 9.485 -3.01 9.485 -2 11 C-3.32 11.33 -4.64 11.66 -6 12 C-5.34 12.66 -4.68 13.32 -4 14 C-4.33 14.99 -4.66 15.98 -5 17 C-4.46804363 19.14853436 -4.46804363 19.14853436 -3 21 C-0.46229997 22.28254644 -0.46229997 22.28254644 2 23 C1.67 25.31 1.34 27.62 1 30 C-2.373369 25.99992713 -5.08171757 21.7929547 -7.75 17.3125 C-8.16121094 16.63638672 -8.57242188 15.96027344 -8.99609375 15.26367188 C-12 10.248845 -12 10.248845 -12 8 C-11.38511719 7.67386719 -10.77023437 7.34773437 -10.13671875 7.01171875 C-8.92435547 6.35623047 -8.92435547 6.35623047 -7.6875 5.6875 C-6.88699219 5.25824219 -6.08648438 4.82898438 -5.26171875 4.38671875 C-2.97749619 3.10716154 -2.97749619 3.10716154 -1.33203125 1.33203125 C-0.89246094 0.89246094 -0.45289063 0.45289063 0 0 Z " fill="#17232C" transform="translate(602,732)"/>
<path d="M0 0 C-4.86658375 1.76904321 -9.740961 3.51377919 -14.62402344 5.23681641 C-16.28294426 5.82595678 -17.93956997 6.42160271 -19.59375 7.02392578 C-21.97598733 7.89006375 -24.36557814 8.73224505 -26.7578125 9.5703125 C-27.49242706 9.84312042 -28.22704163 10.11592834 -28.98391724 10.39700317 C-33.7007753 12.01627575 -36.4592065 12.10487952 -41 10 C-40.34 9.67 -39.68 9.34 -39 9 C-38.67 8.01 -38.34 7.02 -38 6 C-36.97519531 6.12181641 -36.97519531 6.12181641 -35.9296875 6.24609375 C-26.64210822 6.82805204 -19.13019524 4.46035621 -10.42919922 1.40209961 C-9.51154785 1.08249268 -8.59389648 0.76288574 -7.6484375 0.43359375 C-6.82520996 0.13509521 -6.00198242 -0.16340332 -5.15380859 -0.47094727 C-3 -1 -3 -1 0 0 Z " fill="#111B24" transform="translate(497,235)"/>
<path d="M0 0 C3 0 3 0 6 1 C6 1.66 6 2.32 6 3 C6.78375 2.938125 7.5675 2.87625 8.375 2.8125 C9.674375 2.9053125 9.674375 2.9053125 11 3 C13 6 13 6 12.875 7.9375 C11.75832538 10.56966159 10.04422211 12.0337703 8 14 C6.66101601 12.04532248 5.32870953 10.0866421 4 8.125 C3.2575 7.03445313 2.515 5.94390625 1.75 4.8203125 C0 2 0 2 0 0 Z " fill="#111E28" transform="translate(334,704)"/>
<path d="M0 0 C0 3 0 3 -2.0625 5.9375 C-4.27602649 8.7356901 -4.27602649 8.7356901 -3.75 11.375 C-3.5025 11.91125 -3.255 12.4475 -3 13 C-3.33 12.34 -3.66 11.68 -4 11 C-4.66 11 -5.32 11 -6 11 C-5.34 12.65 -4.68 14.3 -4 16 C-5.65 16 -7.3 16 -9 16 C-9 15.34 -9 14.68 -9 14 C-13.21313752 16.58533439 -15.98043774 19.11770566 -19 23 C-19.66 23 -20.32 23 -21 23 C-19.48623919 19.43235715 -17.39486871 17.16293713 -14.6484375 14.453125 C-13.79765625 13.60878906 -12.946875 12.76445313 -12.0703125 11.89453125 C-11.18085937 11.02183594 -10.29140625 10.14914062 -9.375 9.25 C-8.4778125 8.36183594 -7.580625 7.47367188 -6.65625 6.55859375 C-4.44192996 4.36783031 -2.22307565 2.18187237 0 0 Z " fill="#0F1922" transform="translate(618,543)"/>
<path d="M0 0 C16.83 0 33.66 0 51 0 C47.22992429 2.51338381 45.26418483 2.21760881 40.76171875 2.16015625 C39.68589287 2.1523539 39.68589287 2.1523539 38.58833313 2.14439392 C36.28784915 2.1265962 33.98781171 2.09553729 31.6875 2.0625 C28.69143917 2.02543998 25.69542517 1.99510205 22.69921875 1.97265625 C21.60358109 1.96427231 21.60358109 1.96427231 20.48580933 1.95571899 C13.62365697 1.93689292 6.83529043 2.38122058 0 3 C0 2.01 0 1.02 0 0 Z " fill="#141E29" transform="translate(418,781)"/>
<path d="M0 0 C0.99 0 1.98 0 3 0 C1.64969935 4.10117911 -0.05403849 6.42635109 -3.25 9.3125 C-3.99765625 10.00988281 -4.7453125 10.70726562 -5.515625 11.42578125 C-8.55215207 13.34986995 -10.47067734 13.30091046 -14 13 C-13.67 12.01 -13.34 11.02 -13 10 C-12.36578125 9.85691406 -11.7315625 9.71382812 -11.078125 9.56640625 C-8.84274838 9.19801426 -8.84274838 9.19801426 -7.734375 7.15234375 C-7.24710938 6.05599609 -7.24710938 6.05599609 -6.75 4.9375 C-6.41484375 4.20402344 -6.0796875 3.47054687 -5.734375 2.71484375 C-5.49203125 2.14894531 -5.2496875 1.58304688 -5 1 C-4.34 1 -3.68 1 -3 1 C-3 1.66 -3 2.32 -3 3 C-2.34 3 -1.68 3 -1 3 C-0.67 2.01 -0.34 1.02 0 0 Z " fill="#EEEEEF" transform="translate(718,764)"/>
<path d="M0 0 C0.33 0 0.66 0 1 0 C1.17687391 7.5274807 1.34283553 15.05513432 1.49477577 22.58315849 C1.56566892 26.078534 1.64035295 29.57374359 1.72363281 33.06884766 C1.81915787 37.08477753 1.89831525 41.10088358 1.9765625 45.1171875 C2.00875885 46.37554413 2.0409552 47.63390076 2.0741272 48.9303894 C2.09429901 50.09144196 2.11447083 51.25249451 2.13525391 52.44873047 C2.15746002 53.47465302 2.17966614 54.50057556 2.20254517 55.55758667 C2 58 2 58 0 60 C-0.79899351 52.06528102 -1.09696247 44.29706656 -0.87890625 36.328125 C-0.85529526 35.27969421 -0.83168427 34.23126343 -0.80735779 33.15106201 C-0.73168182 29.85053599 -0.6472532 26.55030409 -0.5625 23.25 C-0.50918276 20.99220119 -0.45644331 18.73438866 -0.40429688 16.4765625 C-0.27619938 10.98419889 -0.1409439 5.49204818 0 0 Z " fill="#151E27" transform="translate(706,688)"/>
<path d="M0 0 C1.1240625 -0.01611328 2.248125 -0.03222656 3.40625 -0.04882812 C9.28332962 -0.05230158 13.67299906 -0.00341583 18.625 3.3125 C18.625 4.3025 18.625 5.2925 18.625 6.3125 C17.76777344 5.83167969 16.91054688 5.35085938 16.02734375 4.85546875 C10.08059751 2.30686322 3.54980156 2.73740815 -2.8125 2.625 C-4.11638672 2.59083984 -5.42027344 2.55667969 -6.76367188 2.52148438 C-9.96736198 2.43933847 -13.17078979 2.3700759 -16.375 2.3125 C-11.26777268 -0.73018405 -5.77470406 -0.01644278 0 0 Z " fill="#0A1218" transform="translate(453.375,695.6875)"/>
<path d="M0 0 C3.5581296 0.58511464 5.28778845 1.91247335 7.875 4.375 C11.11003725 7.32530551 13.98359003 9.29302576 18 11 C17.01 12.65 16.02 14.3 15 16 C14.67 15.01 14.34 14.02 14 13 C13.34 13 12.68 13 12 13 C11.67 12.34 11.34 11.68 11 11 C10.01 11.495 10.01 11.495 9 12 C8.34 11.01 7.68 10.02 7 9 C6.34 8.505 5.68 8.01 5 7.5 C3 6 3 6 1 3 C-0.32 3.33 -1.64 3.66 -3 4 C-2.01 2.68 -1.02 1.36 0 0 Z " fill="#E6EAEB" transform="translate(768,751)"/>
<path d="M0 0 C0.66 0 1.32 0 2 0 C4.42857143 6.28571429 4.42857143 6.28571429 3 10 C3.66 10.33 4.32 10.66 5 11 C3.68 11.99 2.36 12.98 1 14 C-0.98 12.02 -2.96 10.04 -5 8 C-3.63055898 5.05043472 -2.12169591 2.47531189 0 0 Z " fill="#172734" transform="translate(491,719)"/>
<path d="M0 0 C0.33 0 0.66 0 1 0 C0.67197585 6.77916575 -0.64245174 12.98185651 -2.4375 19.5 C-2.65494873 20.30163574 -2.87239746 21.10327148 -3.09643555 21.92919922 C-4.74732372 27.74732372 -4.74732372 27.74732372 -7 30 C-7.66 29.34 -8.32 28.68 -9 28 C-8.82277961 22.50616776 -8.82277961 22.50616776 -8 20 C-7.36835937 19.42507813 -6.73671875 18.85015625 -6.0859375 18.2578125 C-3.15886747 15.08956067 -2.64249432 11.89058842 -1.75 7.75 C-1.57726562 7.00492187 -1.40453125 6.25984375 -1.2265625 5.4921875 C-0.80476472 3.66439713 -0.40060441 1.83255208 0 0 Z " fill="#111A22" transform="translate(641,438)"/>
<path d="M0 0 C7.21930632 1.44386126 14.05110733 3.57788174 21 6 C20.67 6.66 20.34 7.32 20 8 C18.35 8 16.7 8 15 8 C14.67 7.34 14.34 6.68 14 6 C11.11785113 6.88214887 11.11785113 6.88214887 9 8 C6.6599583 7.71758117 4.32495277 7.38749213 2 7 C1.34 4.69 0.68 2.38 0 0 Z " fill="#0F1A23" transform="translate(582,279)"/>
<path d="M0 0 C0.33 0 0.66 0 1 0 C1.33 7.59 1.66 15.18 2 23 C0.35 23.33 -1.3 23.66 -3 24 C-4.05404945 20.01803543 -3.84098656 17.01804691 -3 13 C-2.67 13 -2.34 13 -2 13 C-1.34 8.71 -0.68 4.42 0 0 Z " fill="#101A23" transform="translate(182,720)"/>
<path d="M0 0 C0.391875 0.474375 0.78375 0.94875 1.1875 1.4375 C3.40808374 3.35179633 5.13375709 3.61266988 8 4 C8.13277344 4.61488281 8.26554687 5.22976563 8.40234375 5.86328125 C8.66724609 7.07564453 8.66724609 7.07564453 8.9375 8.3125 C9.11152344 9.11300781 9.28554688 9.91351562 9.46484375 10.73828125 C9.99886159 13.145401 9.99886159 13.145401 11 16 C11.66 16 12.32 16 13 16 C14.32 18.97 15.64 21.94 17 25 C16.34 25 15.68 25 15 25 C13.39599609 22.92041016 13.39599609 22.92041016 11.5234375 20.0390625 C10.51796875 18.49605469 10.51796875 18.49605469 9.4921875 16.921875 C8.79351562 15.83390625 8.09484375 14.7459375 7.375 13.625 C6.31539063 12.00464844 6.31539063 12.00464844 5.234375 10.3515625 C0 2.26758567 0 2.26758567 0 0 Z " fill="#10171F" transform="translate(317,678)"/>
<path d="M0 0 C3.91802946 1.50164984 5.44445723 3.69007807 7.70703125 7.15625 C8.70959961 8.68958984 8.70959961 8.68958984 9.73242188 10.25390625 C10.41884766 11.32511719 11.10527344 12.39632812 11.8125 13.5 C12.51826172 14.57121094 13.22402344 15.64242187 13.95117188 16.74609375 C17.79097328 22.67591364 17.79097328 22.67591364 19 25 C18.67 25.66 18.34 26.32 18 27 C14.69053078 22.80592423 11.84095729 19.06263255 10 14 C9.34 13.67 8.68 13.34 8 13 C7.360625 11.989375 6.72125 10.97875 6.0625 9.9375 C5.381875 8.968125 4.70125 7.99875 4 7 C3.01 7 2.02 7 1 7 C1.33 6.34 1.66 5.68 2 5 C1.10636395 2.39068734 1.10636395 2.39068734 0 0 Z " fill="#121A23" transform="translate(297,684)"/>
<path d="M0 0 C0.66 0.66 1.32 1.32 2 2 C4.06874034 2.6425235 4.06874034 2.6425235 6 3 C6.103125 3.61875 6.20625 4.2375 6.3125 4.875 C6.87525373 7.36526484 6.87525373 7.36526484 10 9 C3.367713 8.0896861 3.367713 8.0896861 0.4375 7.375 C-2.56678936 6.91280164 -5.04230208 7.38094695 -8 8 C-6.68 7.34 -5.36 6.68 -4 6 C-4 5.34 -4 4.68 -4 4 C-3.34 4 -2.68 4 -2 4 C-2 3.01 -2 2.02 -2 1 C-1.34 0.67 -0.68 0.34 0 0 Z " fill="#111D27" transform="translate(513,224)"/>
<path d="M0 0 C1.32 0.66 2.64 1.32 4 2 C-0.29 4.97 -4.58 7.94 -9 11 C-9.66 10.67 -10.32 10.34 -11 10 C-11 9.34 -11 8.68 -11 8 C-11.66 7.67 -12.32 7.34 -13 7 C-13 6.34 -13 5.68 -13 5 C-10.6875 4.375 -10.6875 4.375 -8 4 C-7.01 4.66 -6.02 5.32 -5 6 C-4.67 5.01 -4.34 4.02 -4 3 C-1.9375 2.3125 -1.9375 2.3125 0 2 C0 1.34 0 0.68 0 0 Z " fill="#F1F5F4" transform="translate(582,572)"/>
<path d="M0 0 C-0.845625 0.30292969 -1.69125 0.60585938 -2.5625 0.91796875 C-10.38632364 3.79884421 -10.38632364 3.79884421 -17.625 7.875 C-18.73875 8.57625 -19.8525 9.2775 -21 10 C-21.99 9.67 -22.98 9.34 -24 9 C-23.7215625 8.1028125 -23.7215625 8.1028125 -23.4375 7.1875 C-22.77906313 4.83591238 -22.77906313 4.83591238 -24 2 C-22.02 2.99 -22.02 2.99 -20 4 C-20 4.66 -20 5.32 -20 6 C-19.34 6 -18.68 6 -18 6 C-17.67 5.34 -17.34 4.68 -17 4 C-14.93251357 3.0224855 -12.81941574 2.14012914 -10.6875 1.3125 C-9.53636719 0.85488281 -8.38523438 0.39726563 -7.19921875 -0.07421875 C-4.13717158 -0.96030566 -2.88822927 -1.176686 0 0 Z " fill="#0E171F" transform="translate(224,678)"/>
<path d="M0 0 C-0.33 1.32 -0.66 2.64 -1 4 C-2.32 4 -3.64 4 -5 4 C-6.423125 4.7734375 -6.423125 4.7734375 -7.875 5.5625 C-11.56384953 7.25937078 -13.1369398 7.00775484 -17 6 C-18.3330518 5.66554256 -19.66633065 5.33198636 -21 5 C-18.06746654 3.96448955 -15.12833062 2.94918162 -12.1875 1.9375 C-11.35412109 1.64294922 -10.52074219 1.34839844 -9.66210938 1.04492188 C-8.45844727 0.6340332 -8.45844727 0.6340332 -7.23046875 0.21484375 C-6.49207764 -0.04176025 -5.75368652 -0.29836426 -4.99291992 -0.56274414 C-3 -1 -3 -1 0 0 Z " fill="#162029" transform="translate(465,272)"/>
<path d="M0 0 C4.09799855 3.65787937 6.8591338 8.04709037 9.8125 12.625 C10.32748047 13.40101563 10.84246094 14.17703125 11.37304688 14.9765625 C11.85451172 15.7190625 12.33597656 16.4615625 12.83203125 17.2265625 C13.27264893 17.90283691 13.7132666 18.57911133 14.16723633 19.27587891 C14.44204834 19.84483887 14.71686035 20.41379883 15 21 C14.67 21.66 14.34 22.32 14 23 C13.59007812 22.51789062 13.18015625 22.03578125 12.7578125 21.5390625 C12.21898437 20.90742187 11.68015625 20.27578125 11.125 19.625 C10.32449219 18.68527344 10.32449219 18.68527344 9.5078125 17.7265625 C8.38567993 16.44163349 7.20628025 15.20628025 6 14 C6.33 13.01 6.66 12.02 7 11 C5.68 10.34 4.36 9.68 3 9 C3.33 8.34 3.66 7.68 4 7 C3.34 6.67 2.68 6.34 2 6 C1.34 5.34 0.68 4.68 0 4 C0 2.68 0 1.36 0 0 Z " fill="#0C161D" transform="translate(317,712)"/>
<path d="M0 0 C3.38231081 1.39957689 5.27928642 2.73064421 7 6 C7.36157061 8.80356285 7.23071865 11.13908869 7 14 C6.34 14.66 5.68 15.32 5 16 C5 14.02 5 12.04 5 10 C4.01 9.67 3.02 9.34 2 9 C0.17913066 7.17913066 -0.19904308 4.40287075 -1 2 C-0.67 1.34 -0.34 0.68 0 0 Z " fill="#101A22" transform="translate(471,739)"/>
<path d="M0 0 C0.33 0.99 0.66 1.98 1 3 C0.01 3.33 -0.98 3.66 -2 4 C-2.66 8.62 -3.32 13.24 -4 18 C-3.34 18.33 -2.68 18.66 -2 19 C-1.525625 19.804375 -1.05125 20.60875 -0.5625 21.4375 C0.89664045 24.2355972 0.89664045 24.2355972 4 26 C3.67 26.66 3.34 27.32 3 28 C-1.7964476 24.48260509 -4.18081641 21.86181379 -6 16 C-6.92939658 9.61039854 -4.69063613 5.961183 -1 1 C-0.67 0.67 -0.34 0.34 0 0 Z " fill="#13171C" transform="translate(548,336)"/>
<path d="M0 0 C7 8.44827586 7 8.44827586 7 12 C5.35 12 3.7 12 2 12 C1.7525 11.38125 1.505 10.7625 1.25 10.125 C-0.20628639 7.64931313 -1.37812506 7.04874998 -4 6 C-3.0022242 3.00667261 -2.2477975 2.05233685 0 0 Z " fill="#EBEEEE" transform="translate(606,768)"/>
<path d="M0 0 C0.66 0.33 1.32 0.66 2 1 C1.6875 3.375 1.6875 3.375 1 6 C0.01 6.66 -0.98 7.32 -2 8 C-2.3721042 9.32303717 -2.70630173 10.65737935 -3 12 C-3.66 12.66 -4.32 13.32 -5 14 C-5.33 13.01 -5.66 12.02 -6 11 C-6.66 10.34 -7.32 9.68 -8 9 C-5.36 6.03 -2.72 3.06 0 0 Z " fill="#EBECED" transform="translate(200,689)"/>
<path d="M0 0 C2.97 1.32 5.94 2.64 9 4 C8.01 4.33 7.02 4.66 6 5 C5.67 5.99 5.34 6.98 5 8 C2.9375 8.6875 2.9375 8.6875 1 9 C0.896875 8.360625 0.79375 7.72125 0.6875 7.0625 C0.460625 6.381875 0.23375 5.70125 0 5 C-0.99 4.67 -1.98 4.34 -3 4 C-2.34 4 -1.68 4 -1 4 C-0.67 2.68 -0.34 1.36 0 0 Z " fill="#162733" transform="translate(772,775)"/>
<path d="M0 0 C0.33 0 0.66 0 1 0 C1 2.31 1 4.62 1 7 C1.66 6.67 2.32 6.34 3 6 C3.33 7.98 3.66 9.96 4 12 C1 14 1 14 -2 14 C-3.1171875 12.328125 -3.1171875 12.328125 -4 10 C-3.3203125 7.421875 -3.3203125 7.421875 -2.125 4.75 C-1.73570312 3.85796875 -1.34640625 2.9659375 -0.9453125 2.046875 C-0.63335938 1.37140625 -0.32140625 0.6959375 0 0 Z " fill="#EEF0F1" transform="translate(707,746)"/>
<path d="M0 0 C0.66 0 1.32 0 2 0 C2.3403125 0.76183594 2.680625 1.52367187 3.03125 2.30859375 C6.4557728 9.60392024 10.31794971 15.28910681 16 21 C13 21 13 21 11.0625 19.25 C10.0415625 18.13625 10.0415625 18.13625 9 17 C8.29875 16.34 7.5975 15.68 6.875 15 C4.25541452 12.20577549 3.20214265 9.60642794 2 6 C1.34 5.34 0.68 4.68 0 4 C0 2.68 0 1.36 0 0 Z " fill="#0C131C" transform="translate(644,756)"/>
<path d="M0 0 C0.99 0 1.98 0 3 0 C3 0.66 3 1.32 3 2 C3.66 2 4.32 2 5 2 C5 3.32 5 4.64 5 6 C5.31151288 8.33634657 5.64159778 10.67038557 6 13 C5.34 13 4.68 13 4 13 C3.67 15.97 3.34 18.94 3 22 C2.67 22 2.34 22 2 22 C1.93941406 20.74703125 1.87882813 19.4940625 1.81640625 18.203125 C1.73197744 16.55207276 1.64733061 14.90103165 1.5625 13.25 C1.52318359 12.425 1.48386719 11.6 1.44335938 10.75 C1.40146484 9.95078125 1.35957031 9.1515625 1.31640625 8.328125 C1.27974854 7.5949707 1.24309082 6.86181641 1.20532227 6.10644531 C0.99885215 3.98822395 0.56867914 2.0480544 0 0 Z " fill="#1C2C36" transform="translate(834,733)"/>
<path d="M0 0 C-4.64309455 3.09539637 -8.84560217 5.00658209 -14.375 5.5625 C-16.169375 5.7790625 -16.169375 5.7790625 -18 6 C-18.33 6.66 -18.66 7.32 -19 8 C-21.32156597 8.40729228 -23.6568787 8.74438677 -26 9 C-26 8.34 -26 7.68 -26 7 C-22.60834995 5.82091891 -19.21107288 4.65896034 -15.8125 3.5 C-14.85279297 3.16613281 -13.89308594 2.83226562 -12.90429688 2.48828125 C-11.97294922 2.17246094 -11.04160156 1.85664063 -10.08203125 1.53125 C-8.80162964 1.09135742 -8.80162964 1.09135742 -7.49536133 0.64257812 C-4.89588043 -0.02681173 -2.67235471 -0.11719018 0 0 Z " fill="#11181D" transform="translate(420,286)"/>
<path d="M0 0 C5.625 -0.25 5.625 -0.25 9 2 C9.6875 5.125 9.6875 5.125 10 8 C8.25 8.75 8.25 8.75 6 9 C3.75 7.0625 3.75 7.0625 2 5 C2.33 4.67 2.66 4.34 3 4 C2.01 3.34 1.02 2.68 0 2 C0 1.34 0 0.68 0 0 Z " fill="#EEF1EF" transform="translate(436,568)"/>
<path d="M0 0 C7.9587799 -0.54470737 13.81947541 0.51098155 21 4 C20 6 20 6 18 7 C18 6.01 18 5.02 18 4 C17.01 4.33 16.02 4.66 15 5 C12.66700175 5.03954234 10.33291811 5.04401732 8 5 C8 4.01 8 3.02 8 2 C5.36 1.67 2.72 1.34 0 1 C0 0.67 0 0.34 0 0 Z " fill="#0D151C" transform="translate(232,695)"/>
<path d="M0 0 C2.64 1.65 5.28 3.3 8 5 C7.01 6.485 7.01 6.485 6 8 C3 8 3 8 0 7 C-0.33 7.66 -0.66 8.32 -1 9 C-2.16552619 4.80410573 -2.08954032 4.17908064 0 0 Z " fill="#EDEFF0" transform="translate(459,559)"/>
<path d="M0 0 C1.65 0 3.3 0 5 0 C5 0.66 5 1.32 5 2 C6.1446875 2.1546875 6.1446875 2.1546875 7.3125 2.3125 C10.17059424 3.04364039 11.15742885 3.76951913 13 6 C9.92478317 7.53760842 7.65324882 6.36599236 4.375 5.5625 C3.18648437 5.27503906 1.99796875 4.98757813 0.7734375 4.69140625 C-0.14179687 4.46324219 -1.05703125 4.23507812 -2 4 C-1.34 3.67 -0.68 3.34 0 3 C0 2.01 0 1.02 0 0 Z " fill="#17212A" transform="translate(581,674)"/>
<path d="M0 0 C0.66 0 1.32 0 2 0 C1.50769231 6.52307692 1.50769231 6.52307692 -1.0625 8.9375 C-1.701875 9.288125 -2.34125 9.63875 -3 10 C-2.67 12.64 -2.34 15.28 -2 18 C-2.66 18 -3.32 18 -4 18 C-5.59760269 14.80479461 -5.37477857 11.4763943 -5 8 C-3.65059348 4.68782037 -2.5207227 2.5207227 0 0 Z " fill="#121921" transform="translate(549,479)"/>
<path d="M0 0 C0.721875 0.144375 1.44375 0.28875 2.1875 0.4375 C3.99102553 0.79820511 5.80424295 1.11489185 7.625 1.375 C10.26900178 2.07078994 11.28222137 2.92058376 13 5 C12.34 5.66 11.68 6.32 11 7 C11.99 7.99 12.98 8.98 14 10 C13.67 10.66 13.34 11.32 13 12 C12.39671875 11.36191406 11.7934375 10.72382812 11.171875 10.06640625 C10.37265625 9.24011719 9.5734375 8.41382813 8.75 7.5625 C7.96109375 6.73878906 7.1721875 5.91507813 6.359375 5.06640625 C4.09265283 3.08114793 2.9328063 2.3699641 0 2 C0 1.34 0 0.68 0 0 Z " fill="#0A151F" transform="translate(258,752)"/>
<path d="M0 0 C0.33 0.99 0.66 1.98 1 3 C1.99 2.01 2.98 1.02 4 0 C5.14947895 3.55293493 5.0868937 4.79976669 3.5625 8.3125 C2.7890625 9.6428125 2.7890625 9.6428125 2 11 C-0.0625 8.8125 -0.0625 8.8125 -2 6 C-1.70731707 1.70731707 -1.70731707 1.70731707 0 0 Z " fill="#142028" transform="translate(587,709)"/>
<path d="M0 0 C1.9375 0.75 1.9375 0.75 4 2 C4.75 4.125 4.75 4.125 5 6 C0.48571429 7.12857143 0.48571429 7.12857143 -2.125 6.4375 C-3.053125 6.2209375 -3.053125 6.2209375 -4 6 C-4.99 6.66 -5.98 7.32 -7 8 C-5.50902342 4.2047869 -3.24299151 2.38957269 0 0 Z " fill="#F1F1F1" transform="translate(538,320)"/>
<path d="M0 0 C5.52289491 2.23545746 8.44984265 5.40493818 12 10 C10.68 10 9.36 10 8 10 C8 9.34 8 8.68 8 8 C6.35 8 4.7 8 3 8 C3 6 3 6 4 5 C3.360625 4.896875 2.72125 4.79375 2.0625 4.6875 C1.381875 4.460625 0.70125 4.23375 0 4 C-0.33 3.01 -0.66 2.02 -1 1 C-0.67 0.67 -0.34 0.34 0 0 Z " fill="#EEF0F3" transform="translate(477,681)"/>
<path d="M0 0 C0 3 0 3 -1.96875 5.26171875 C-2.8040625 6.06222656 -3.639375 6.86273437 -4.5 7.6875 C-5.3353125 8.49574219 -6.170625 9.30398438 -7.03125 10.13671875 C-8.00578125 11.05904297 -8.00578125 11.05904297 -9 12 C-9.66 11.34 -10.32 10.68 -11 10 C-11.99 10.33 -12.98 10.66 -14 11 C-13 9 -12 7 -11 5 C-10.443125 5.268125 -9.88625 5.53625 -9.3125 5.8125 C-8.1678125 5.9053125 -8.1678125 5.9053125 -7 6 C-4.33333333 3.66666667 -4.33333333 3.66666667 -2 1 C-1.34 0.67 -0.68 0.34 0 0 Z " fill="#111C26" transform="translate(592,533)"/>
<path d="M0 0 C1.32 0.66 2.64 1.32 4 2 C3.67 3.98 3.34 5.96 3 8 C2.01 8.33 1.02 8.66 0 9 C-0.99 10.485 -0.99 10.485 -2 12 C-2.66 11.67 -3.32 11.34 -4 11 C-2.68 7.37 -1.36 3.74 0 0 Z " fill="#131E27" transform="translate(659,471)"/>
<path d="M0 0 C0.66 0.33 1.32 0.66 2 1 C2 1.66 2 2.32 2 3 C3.9600281 4.63676257 3.9600281 4.63676257 6 6 C3.69 6.66 1.38 7.32 -1 8 C-1.33 7.34 -1.66 6.68 -2 6 C-2.99 6.495 -2.99 6.495 -4 7 C-4 6.01 -4 5.02 -4 4 C-4.66 3.67 -5.32 3.34 -6 3 C-5.34 3 -4.68 3 -4 3 C-3.67 2.34 -3.34 1.68 -3 1 C-2.01 0.67 -1.02 0.34 0 0 Z " fill="#ECEFEF" transform="translate(488,256)"/>
<path d="M0 0 C3.8 3.54666667 3.8 3.54666667 4.9375 6.125 C6.42234691 8.74531808 8.2056545 9.11757511 11 10 C10.67 12.31 10.34 14.62 10 17 C0 5.46153846 0 5.46153846 0 0 Z " fill="#111921" transform="translate(593,745)"/>
<path d="M0 0 C0.33 0.66 0.66 1.32 1 2 C1.66 2 2.32 2 3 2 C3 2.66 3 3.32 3 4 C4.65 4 6.3 4 8 4 C11 9.625 11 9.625 11 13 C10.40832031 12.45730469 9.81664062 11.91460938 9.20703125 11.35546875 C8.41683594 10.64003906 7.62664063 9.92460938 6.8125 9.1875 C6.03519531 8.47980469 5.25789062 7.77210938 4.45703125 7.04296875 C2.08015085 5.06664371 -0.31078866 3.51417406 -3 2 C-2.01 1.34 -1.02 0.68 0 0 Z " fill="#0E161F" transform="translate(820,720)"/>
<path d="M0 0 C1.32 0.33 2.64 0.66 4 1 C3.34 1 2.68 1 2 1 C2 1.66 2 2.32 2 3 C2.66 3 3.32 3 4 3 C3.39305845 6.15330554 2.3583335 8.18888867 0.4375 10.75 C-0.24505859 11.67039062 -0.24505859 11.67039062 -0.94140625 12.609375 C-1.29074219 13.06828125 -1.64007813 13.5271875 -2 14 C-3.65869 10.68262 -1.93988576 7.41191407 -1 4 C-0.66341299 2.66748431 -0.32910782 1.3343826 0 0 Z " fill="#142129" transform="translate(355,689)"/>
<path d="M0 0 C0.875 2.125 0.875 2.125 1 4 C0.01 4.495 0.01 4.495 -1 5 C-1.33 4.01 -1.66 3.02 -2 2 C-2 2.99 -2 3.98 -2 5 C-4.64 5 -7.28 5 -10 5 C-9.649375 4.38125 -9.29875 3.7625 -8.9375 3.125 C-8.628125 2.42375 -8.31875 1.7225 -8 1 C-8.33 0.34 -8.66 -0.32 -9 -1 C-5.1851221 -2.27162597 -3.6068725 -1.64661571 0 0 Z " fill="#101E2B" transform="translate(482,602)"/>
<path d="M0 0 C3.95820859 0.56545837 6.6659053 1.80902348 10 4 C9.67 4.99 9.34 5.98 9 7 C7.02 7 5.04 7 3 7 C2.690625 6.21625 2.38125 5.4325 2.0625 4.625 C1.07124962 2.07669872 1.07124962 2.07669872 0 0 Z " fill="#1A232B" transform="translate(537,519)"/>
<path d="M0 0 C0 0.99 0 1.98 0 3 C-0.78375 3.28875 -1.5675 3.5775 -2.375 3.875 C-5.09671632 4.84912254 -5.09671632 4.84912254 -7 7 C-10.625 7.125 -10.625 7.125 -14 7 C-14 7.66 -14 8.32 -14 9 C-14.66 9 -15.32 9 -16 9 C-15.97265625 7.171875 -15.97265625 7.171875 -15 5 C-12.43536061 3.87333761 -10.10519928 3.02331665 -7.4375 2.25 C-6.72658203 2.02957031 -6.01566406 1.80914062 -5.28320312 1.58203125 C-3.5266781 1.03974836 -1.76386515 0.51790986 0 0 Z " fill="#EDEFF2" transform="translate(486,238)"/>
<path d="M0 0 C0.99 0 1.98 0 3 0 C3 0.66 3 1.32 3 2 C3.99 1.67 4.98 1.34 6 1 C8.125 1.25 8.125 1.25 10 2 C11.09658936 5.28976808 10.79953138 6.71303767 10 10 C9.34 9.34 8.68 8.68 8 8 C8 7.34 8 6.68 8 6 C6.68 6.33 5.36 6.66 4 7 C2.02 3.535 2.02 3.535 0 0 Z " fill="#F1F1F1" transform="translate(301,687)"/>
<path d="M0 0 C0.33 0.99 0.66 1.98 1 3 C-2.9813783 4.3271261 -6.85045227 4.06915913 -11 4 C-7.60899654 -0.72318339 -7.60899654 -0.72318339 -4.9375 -1.9375 C-3 -2 -3 -2 0 0 Z " fill="#EEF1F3" transform="translate(811,778)"/>
<path d="M0 0 C0.66 0 1.32 0 2 0 C2.33 0.99 2.66 1.98 3 3 C2.2884375 3.61875 2.2884375 3.61875 1.5625 4.25 C-1.73897376 7.94765061 -1.28907819 13.00770039 -1.5625 17.75 C-1.60568359 18.44738281 -1.64886719 19.14476562 -1.69335938 19.86328125 C-1.79889596 21.57531922 -1.8998991 23.28763561 -2 25 C-2.33 25 -2.66 25 -3 25 C-3.08156437 22.14524694 -3.14076372 19.29286435 -3.1875 16.4375 C-3.21263672 15.63763672 -3.23777344 14.83777344 -3.26367188 14.01367188 C-3.33054885 8.55205195 -2.4909519 4.87075897 0 0 Z " fill="#18212A" transform="translate(357,727)"/>
<path d="M0 0 C0.53625 0.268125 1.0725 0.53625 1.625 0.8125 C-0.355 1.8025 -2.335 2.7925 -4.375 3.8125 C-4.045 5.1325 -3.715 6.4525 -3.375 7.8125 C-4.365 8.4725 -5.355 9.1325 -6.375 9.8125 C-6.045 11.1325 -5.715 12.4525 -5.375 13.8125 C-6.365 13.4825 -7.355 13.1525 -8.375 12.8125 C-9.08683484 5.81279078 -9.08683484 5.81279078 -7.1796875 3.1328125 C-4.82884033 1.04185798 -3.21187412 -0.25356901 0 0 Z " fill="#0E1720" transform="translate(788.375,696.1875)"/>
<path d="M0 0 C4.8274799 1.41292095 8.7162359 3.42974154 13 6 C12.01 6.99 11.02 7.98 10 9 C8 8 8 8 7 5 C6.01 5 5.02 5 4 5 C1.66435067 4.68330179 -0.6693782 4.35179197 -3 4 C-2.01 2.68 -1.02 1.36 0 0 Z " fill="#0D181F" transform="translate(496,611)"/>
<path d="M0 0 C6.55925943 0.38979206 11.94526627 1.42113193 18 4 C17.67 4.66 17.34 5.32 17 6 C16.05125 5.67 15.1025 5.34 14.125 5 C11.22937548 3.89840809 11.22937548 3.89840809 9 4 C8.67 4.66 8.34 5.32 8 6 C7.01 5.34 6.02 4.68 5 4 C5.33 3.34 5.66 2.68 6 2 C3.03 1.505 3.03 1.505 0 1 C0 0.67 0 0.34 0 0 Z " fill="#0E161E" transform="translate(792,736)"/>
<path d="M0 0 C0.66 0.33 1.32 0.66 2 1 C-1.18181818 9.18181818 -1.18181818 9.18181818 -4 12 C-4.66 11.67 -5.32 11.34 -6 11 C-6.33 11.66 -6.66 12.32 -7 13 C-6.65986985 7.55791766 -3.29703472 4.06331802 0 0 Z " fill="#131C24" transform="translate(370,708)"/>
<path d="M0 0 C1.5625 1.125 1.5625 1.125 3 3 C2.81878333 7.25859163 1.81307141 9.82000623 -1 13 C-2.0625 11.1875 -2.0625 11.1875 -3 9 C-2 6 -1 3 0 0 Z " fill="#EDF0F2" transform="translate(588,496)"/>
<path d="M0 0 C2.37160148 2.37160148 2.31983352 3.00621122 2.375 6.25 C2.29801482 11.01538294 0.98554417 13.36136804 -2 17 C-2.66 16.67 -3.32 16.34 -4 16 C-3.649375 15.443125 -3.29875 14.88625 -2.9375 14.3125 C-1.78154007 11.46113217 -2.19032562 9.91482778 -3 7 C-2.34 6.67 -1.68 6.34 -1 6 C-1 6.66 -1 7.32 -1 8 C-0.34 8 0.32 8 1 8 C0.67 5.36 0.34 2.72 0 0 Z " fill="#10171E" transform="translate(571,485)"/>
<path d="M0 0 C1.8125 0.25 1.8125 0.25 4 1 C4.474375 1.66 4.94875 2.32 5.4375 3 C6.87886306 5.25275456 6.87886306 5.25275456 9.6875 5.75 C10.450625 5.8325 11.21375 5.915 12 6 C11.67 6.99 11.34 7.98 11 9 C11.33 9.33 11.66 9.66 12 10 C12.33 10.99 12.66 11.98 13 13 C12.34 13.66 11.68 14.32 11 15 C10.62488281 14.41992188 10.24976563 13.83984375 9.86328125 13.2421875 C6.80735369 8.57747188 3.66462807 4.20354396 0 0 Z " fill="#0C141E" transform="translate(578,462)"/>
<path d="M0 0 C1.24717912 2.49435825 1.13814868 4.23702649 1 7 C0.67 7.66 0.34 8.32 0 9 C1.8130666 13.63339243 3.94775971 16.1524798 8 19 C4.46491897 18.70540991 3.23796556 18.25118587 0.75 15.625 C-2.0944608 11.3583088 -2.27060491 8.05129165 -2 3 C-1.34 2.01 -0.68 1.02 0 0 Z " fill="#141921" transform="translate(485,417)"/>
<path d="M0 0 C-3.20336822 2.83374881 -5.78087253 3.5205537 -10 4 C-10 4.66 -10 5.32 -10 6 C-10.99 6 -11.98 6 -13 6 C-13 4.68 -13 3.36 -13 2 C-11.5882217 1.46605821 -10.17029756 0.94834896 -8.75 0.4375 C-7.96109375 0.14746094 -7.1721875 -0.14257812 -6.359375 -0.44140625 C-3.80896548 -1.04522837 -2.44677771 -0.8473932 0 0 Z " fill="#162029" transform="translate(393,295)"/>
<path d="M0 0 C1.32 0.66 2.64 1.32 4 2 C3.67 2.99 3.34 3.98 3 5 C2.67 5 2.34 5 2 5 C1.34 8.96 0.68 12.92 0 17 C-0.33 17 -0.66 17 -1 17 C-1 12.38 -1 7.76 -1 3 C-0.34 3 0.32 3 1 3 C0.67 2.01 0.34 1.02 0 0 Z " fill="#0A171E" transform="translate(498,739)"/>
<path d="M0 0 C-0.33 0.99 -0.66 1.98 -1 3 C-3.0625 3.6875 -3.0625 3.6875 -5 4 C-5 4.66 -5 5.32 -5 6 C-6.65 6.33 -8.3 6.66 -10 7 C-9.67 5.02 -9.34 3.04 -9 1 C-3.375 -1.125 -3.375 -1.125 0 0 Z " fill="#15212B" transform="translate(519,617)"/>
<path d="M0 0 C3.68754757 0.49831724 5.60490662 1.10067643 8 4 C7.67 4.66 7.34 5.32 7 6 C7.33 6.33 7.66 6.66 8 7 C6.02 7.99 6.02 7.99 4 9 C2.68 6.03 1.36 3.06 0 0 Z M6 2 C9 3 9 3 9 3 Z " fill="#EEF1F2" transform="translate(375,498)"/>
<path d="M0 0 C1.32 1.32 2.64 2.64 4 4 C2.35 6.64 0.7 9.28 -1 12 C-1.66 11.01 -2.32 10.02 -3 9 C-2.5390625 6.73828125 -2.5390625 6.73828125 -1.625 4.3125 C-1.32851563 3.50425781 -1.03203125 2.69601562 -0.7265625 1.86328125 C-0.48679687 1.24839844 -0.24703125 0.63351562 0 0 Z " fill="#F2F3F3" transform="translate(356,720)"/>
<path d="M0 0 C1.65 0.33 3.3 0.66 5 1 C4.67 2.98 4.34 4.96 4 7 C3.01 6.67 2.02 6.34 1 6 C-1.14255793 6.38932856 -1.14255793 6.38932856 -3 7 C-1.125 2.25 -1.125 2.25 0 0 Z M-4 7 C-3.67 7.66 -3.34 8.32 -3 9 C-3.66 8.67 -4.32 8.34 -5 8 C-4.67 7.67 -4.34 7.34 -4 7 Z " fill="#EEF1F1" transform="translate(362,688)"/>
<path d="M0 0 C2.4375 0.8125 2.4375 0.8125 5 2 C5.33 2.99 5.66 3.98 6 5 C7.79425225 8.18071989 9.75870951 11.1183408 12 14 C11.67 14.66 11.34 15.32 11 16 C9.53386553 14.27744283 8.07738944 12.54666216 6.625 10.8125 C5.40683594 9.36810547 5.40683594 9.36810547 4.1640625 7.89453125 C2.20099811 5.26884404 1.0275346 3.08824959 0 0 Z " fill="#0E171E" transform="translate(408,506)"/>
<path d="M0 0 C0.969375 0.886875 1.93875 1.77375 2.9375 2.6875 C6.94518469 6.14494929 11.30561573 8.59426112 16 11 C15.67 11.66 15.34 12.32 15 13 C13.37258256 12.21331482 11.74813869 11.4204759 10.125 10.625 C9.22007812 10.18414062 8.31515625 9.74328125 7.3828125 9.2890625 C5 8 5 8 3 6 C2.01 5.67 1.02 5.34 0 5 C0 3.33333333 0 1.66666667 0 0 Z " fill="#081018" transform="translate(529,370)"/>
<path d="M0 0 C-0.60990891 3.55780196 -1.5783681 6.6828589 -3 10 C-3.99 10 -4.98 10 -6 10 C-6.33 9.34 -6.66 8.68 -7 8 C-4.05263158 0 -4.05263158 0 0 0 Z " fill="#ECEFF1" transform="translate(208,707)"/>
<path d="M0 0 C1.65 0.99 3.3 1.98 5 3 C4.67 4.32 4.34 5.64 4 7 C3.34 7 2.68 7 2 7 C1.34 6.34 0.68 5.68 0 5 C-1.98821313 4.60235737 -3.98944339 4.26224651 -6 4 C-5.34 3.34 -4.68 2.68 -4 2 C-2.68 2 -1.36 2 0 2 C0 1.34 0 0.68 0 0 Z " fill="#ECECEE" transform="translate(823,683)"/>
<path d="M0 0 C0.66 0 1.32 0 2 0 C2 0.66 2 1.32 2 2 C2.99 2 3.98 2 5 2 C4.75 3.875 4.75 3.875 4 6 C2.125 7.3125 2.125 7.3125 0 8 C-0.99 7.67 -1.98 7.34 -3 7 C-2.01 4.69 -1.02 2.38 0 0 Z " fill="#131E28" transform="translate(525,577)"/>
<path d="M0 0 C3.7952131 1.49097658 5.61042731 3.75700849 8 7 C6 7 4 7 2 7 C2.33 7.66 2.66 8.32 3 9 C2.01 8.67 1.02 8.34 0 8 C-1.22393475 5.04215769 -0.96516243 3.00272755 0 0 Z " fill="#0F1A24" transform="translate(418,557)"/>
<path d="M0 0 C2.65085745 2.65085745 3.00614082 4.0634551 3.375 7.875 C3.24248854 11.80617328 2.03185332 14.6135778 0 18 C-1.48068428 15.03863144 -0.24118334 13.02386443 0.72265625 9.97265625 C1.26782945 7.68117596 1.26782945 7.68117596 -1 5 C-1.625 2.8125 -1.625 2.8125 -2 1 C-1.34 0.67 -0.68 0.34 0 0 Z " fill="#070C11" transform="translate(571,341)"/>
<path d="M0 0 C3.96 1.98 7.92 3.96 12 6 C10.68 6.33 9.36 6.66 8 7 C7.67 7.66 7.34 8.32 7 9 C6.566875 8.505 6.13375 8.01 5.6875 7.5 C4.00259517 5.66781808 4.00259517 5.66781808 1 6 C0.67 4.02 0.34 2.04 0 0 Z " fill="#161F28" transform="translate(658,774)"/>
<path d="M0 0 C2.31 0.33 4.62 0.66 7 1 C5.02 1.99 5.02 1.99 3 3 C2.01 2.01 1.02 1.02 0 0 Z M-3 2 C-0.53199953 3.15173355 1.04783565 4.04783565 3 6 C3 6.99 3 7.98 3 9 C0.53199953 7.84826645 -1.04783565 6.95216435 -3 5 C-3 4.01 -3 3.02 -3 2 Z " fill="#EBEDEE" transform="translate(819,696)"/>
<path d="M0 0 C0.99 0.33 1.98 0.66 3 1 C2.67 2.32 2.34 3.64 2 5 C0.35 5 -1.3 5 -3 5 C-3 3 -3 3 -1.5 1.375 C-1.005 0.92125 -0.51 0.4675 0 0 Z M-4 5 C-3.34 5.66 -2.68 6.32 -2 7 C-2.33 7.99 -2.66 8.98 -3 10 C-3.66 10 -4.32 10 -5 10 C-5.33 10.66 -5.66 11.32 -6 12 C-6 8 -6 8 -4 5 Z " fill="#EBEFEF" transform="translate(626,491)"/>
<path d="M0 0 C0.33 0 0.66 0 1 0 C1.26270217 4.33458585 0.48882438 7.92532275 -1 12 C-1.99 12.33 -2.98 12.66 -4 13 C-4.99 14.485 -4.99 14.485 -6 16 C-6.66 16 -7.32 16 -8 16 C-5.33333333 10.66666667 -2.66666667 5.33333333 0 0 Z " fill="#0C1319" transform="translate(527,431)"/>
<path d="M0 0 C0.33 1.65 0.66 3.3 1 5 C-4.03733166 6.5111995 -8.88171027 5.64599773 -14 5 C-14 4.67 -14 4.34 -14 4 C-11.36 3.67 -8.72 3.34 -6 3 C-6 2.34 -6 1.68 -6 1 C-3.92446352 0.4465236 -2.15634036 0 0 0 Z " fill="#16212C" transform="translate(526,362)"/>
<path d="M0 0 C-0.66 0.66 -1.32 1.32 -2 2 C-2 2.66 -2 3.32 -2 4 C-5.3 4.66 -8.6 5.32 -12 6 C-11 3 -11 3 -9.2578125 1.796875 C-8.55398438 1.45140625 -7.85015625 1.1059375 -7.125 0.75 C-6.42632813 0.39421875 -5.72765625 0.0384375 -5.0078125 -0.328125 C-3 -1 -3 -1 0 0 Z " fill="#141D25" transform="translate(714,776)"/>
<path d="M0 0 C0.66 0 1.32 0 2 0 C2.4125 0.45375 2.825 0.9075 3.25 1.375 C5.58139465 3.53986646 7.97828036 4.12705877 11 5 C11 9 11 9 10 12 C9.62488281 11.54109375 9.24976563 11.0821875 8.86328125 10.609375 C5.82545052 6.96703891 2.84619007 3.82808093 -1 1 C-0.67 0.67 -0.34 0.34 0 0 Z " fill="#0A131B" transform="translate(595,680)"/>
<path d="M0 0 C1.1446875 0.2475 1.1446875 0.2475 2.3125 0.5 C5.03596236 1.09145396 5.03596236 1.09145396 8 1 C6.37660195 2.70884005 4.70680947 4.37446717 3 6 C2.34 6 1.68 6 1 6 C0.67 5.01 0.34 4.02 0 3 C0 3.99 0 4.98 0 6 C-0.66 5.67 -1.32 5.34 -2 5 C-1.34 3.35 -0.68 1.7 0 0 Z " fill="#F0F1F2" transform="translate(578,368)"/>
<path d="M0 0 C0.99 0.33 1.98 0.66 3 1 C3 1.99 3 2.98 3 4 C4.32 4.33 5.64 4.66 7 5 C5.02 5.99 5.02 5.99 3 7 C1.02 5.68 -0.96 4.36 -3 3 C-2.01 2.01 -1.02 1.02 0 0 Z " fill="#EDEEEE" transform="translate(205,768)"/>
<path d="M0 0 C0.66 0 1.32 0 2 0 C0.25 4.875 0.25 4.875 -2 6 C-2.22988506 8.36278736 -2.22988506 8.36278736 0.5 10.625 C1.325 11.40875 2.15 12.1925 3 13 C0 13 0 13 -2.6875 10.5 C-3.450625 9.675 -4.21375 8.85 -5 8 C-3.63055898 5.05043472 -2.12169591 2.47531189 0 0 Z " fill="#091017" transform="translate(491,719)"/>
<path d="M0 0 C1.65 0 3.3 0 5 0 C4.45773019 3.79588866 2.79872437 5.47211993 0 8 C-1 7 -1 7 -1.125 4.5625 C-1 2 -1 2 0 0 Z " fill="#1A242A" transform="translate(342,710)"/>
<path d="M0 0 C2.45840605 -0.02691685 4.91651882 -0.04679802 7.375 -0.0625 C8.07367187 -0.07087891 8.77234375 -0.07925781 9.4921875 -0.08789062 C14.7734375 -0.11328125 14.7734375 -0.11328125 17 1 C17 1.66 17 2.32 17 3 C14.36 3.33 11.72 3.66 9 4 C9 3.34 9 2.68 9 2 C6.03 1.67 3.06 1.34 0 1 C0 0.67 0 0.34 0 0 Z " fill="#0C1419" transform="translate(791,695)"/>
<path d="M0 0 C0.66 0.33 1.32 0.66 2 1 C1.34 1.66 0.68 2.32 0 3 C-0.45811675 4.97235333 -0.45811675 4.97235333 -0.625 7.125 C-0.810625 9.043125 -0.810625 9.043125 -1 11 C-2.65 11.33 -4.3 11.66 -6 12 C-5.54300722 6.97307937 -3.00758252 3.85103739 0 0 Z " fill="#E9EDF0" transform="translate(768,687)"/>
<path d="M0 0 C0.66 0.66 1.32 1.32 2 2 C1.34 3.98 0.68 5.96 0 8 C-1.65 7.67 -3.3 7.34 -5 7 C-4.75 4.625 -4.75 4.625 -4 2 C-1.9375 0.6875 -1.9375 0.6875 0 0 Z " fill="#EFF2F1" transform="translate(541,575)"/>
<path d="M0 0 C5.75 0.875 5.75 0.875 8 2 C7.67 2.99 7.34 3.98 7 5 C5.02 4.34 3.04 3.68 1 3 C0.34 4.32 -0.32 5.64 -1 7 C-1.66 5.68 -2.32 4.36 -3 3 C-2.01 2.67 -1.02 2.34 0 2 C0 1.34 0 0.68 0 0 Z " fill="#ECEFF1" transform="translate(483,577)"/>
<path d="M0 0 C4.54075781 4.14010271 7.71842138 8.82390176 11 14 C7.79685307 12.61864289 7.00850272 12.01301979 5 8.9375 C3.32556978 5.88208269 3.32556978 5.88208269 0.75 5.125 C-0.11625 5.063125 -0.11625 5.063125 -1 5 C-0.67 3.35 -0.34 1.7 0 0 Z " fill="#111820" transform="translate(388,522)"/>
<path d="M0 0 C0.66 0 1.32 0 2 0 C2 0.66 2 1.32 2 2 C5.3 2 8.6 2 12 2 C12 2.66 12 3.32 12 4 C10.68 3.67 9.36 3.34 8 3 C8 3.99 8 4.98 8 6 C6.35 6 4.7 6 3 6 C2.01 4.02 1.02 2.04 0 0 Z " fill="#18242B" transform="translate(404,501)"/>
<path d="M0 0 C3.40319453 1.13439818 4.68829699 2.30301316 7 5 C7.75 7.25 7.75 7.25 8 9 C7.01 9.33 6.02 9.66 5 10 C4.16121545 8.71186658 3.32913217 7.41936744 2.5 6.125 C2.0359375 5.40570312 1.571875 4.68640625 1.09375 3.9453125 C0 2 0 2 0 0 Z " fill="#131B22" transform="translate(607,768)"/>
<path d="M0 0 C2.81080836 1.14726872 4.1782406 1.94701628 6.0625 4.25 C4.391875 4.0025 4.391875 4.0025 2.6875 3.75 C-0.65782033 3.2044542 -0.65782033 3.2044542 -2.9375 3.25 C-3.2675 3.91 -3.5975 4.57 -3.9375 5.25 C-4.5975 4.92 -5.2575 4.59 -5.9375 4.25 C-5.5625 2.3125 -5.5625 2.3125 -4.9375 0.25 C-2.9375 -0.75 -2.9375 -0.75 0 0 Z " fill="#131D26" transform="translate(581.9375,696.75)"/>
<path d="M0 0 C0.66 0.99 1.32 1.98 2 3 C-2.455 5.97 -2.455 5.97 -7 9 C-7.33 8.34 -7.66 7.68 -8 7 C-6.68 5.02 -5.36 3.04 -4 1 C-3.34 1.33 -2.68 1.66 -2 2 C-1.34 1.34 -0.68 0.68 0 0 Z " fill="#0F1B24" transform="translate(638,521)"/>
<path d="M0 0 C5.445 1.485 5.445 1.485 11 3 C10.01 3.33 9.02 3.66 8 4 C8 4.66 8 5.32 8 6 C5.69 5.34 3.38 4.68 1 4 C0.67 2.68 0.34 1.36 0 0 Z " fill="#E9EDEF" transform="translate(643,273)"/>
<path d="M0 0 C1.46015291 0.28241641 2.91809793 0.57626614 4.375 0.875 C5.18710937 1.03742188 5.99921875 1.19984375 6.8359375 1.3671875 C9 2 9 2 11 4 C9.02 4.99 9.02 4.99 7 6 C7 5.34 7 4.68 7 4 C4.69 3.67 2.38 3.34 0 3 C0 2.01 0 1.02 0 0 Z " fill="#E7EBED" transform="translate(563,457)"/>
<path d="M0 0 C0.33 0 0.66 0 1 0 C1 1.98 1 3.96 1 6 C1.99 6.33 2.98 6.66 4 7 C3.67 8.98 3.34 10.96 3 13 C1.68 12.34 0.36 11.68 -1 11 C-0.67 7.37 -0.34 3.74 0 0 Z " fill="#0E1922" transform="translate(667,435)"/>
<path d="M0 0 C0 0.99 0 1.98 0 3 C0.66 3.33 1.32 3.66 2 4 C-2.75 7 -2.75 7 -5 7 C-5.33 6.01 -5.66 5.02 -6 4 C-2.25 0 -2.25 0 0 0 Z " fill="#ECEDEE" transform="translate(263,770)"/>
<path d="M0 0 C0.103125 0.639375 0.20625 1.27875 0.3125 1.9375 C0.539375 2.618125 0.76625 3.29875 1 4 C1.99 4.33 2.98 4.66 4 5 C2.68 6.32 1.36 7.64 0 9 C-2 8 -2 8 -4 5 C-3.01 4.34 -2.02 3.68 -1 3 C-0.67 2.01 -0.34 1.02 0 0 Z " fill="#EDEFEE" transform="translate(596,729)"/>
<path d="M0 0 C0.33 0 0.66 0 1 0 C1 3.96 1 7.92 1 12 C-0.32 10.68 -1.64 9.36 -3 8 C-2.82813436 4.47675428 -1.98272184 2.97408276 0 0 Z " fill="#EDF0F4" transform="translate(493,701)"/>
<path d="M0 0 C2.64 0 5.28 0 8 0 C8 0.99 8 1.98 8 3 C7.34 3 6.68 3 6 3 C5.67 3.99 5.34 4.98 5 6 C3.68 5.67 2.36 5.34 1 5 C0.67 3.35 0.34 1.7 0 0 Z " fill="#EBEDEA" transform="translate(503,610)"/>
<path d="M0 0 C1 3 1 3 0.3125 5.125 C-1 7 -1 7 -3.125 7.75 C-4.053125 7.87375 -4.053125 7.87375 -5 8 C-5.66 7.01 -6.32 6.02 -7 5 C-4.69 3.35 -2.38 1.7 0 0 Z " fill="#EAEDEE" transform="translate(564,559)"/>
<path d="M0 0 C3.11227195 0 5.94152152 0.45627049 9 1 C8.67 1.66 8.34 2.32 8 3 C4.52674819 4.1577506 1.63932552 4.06866652 -2 4 C-2.33 3.34 -2.66 2.68 -3 2 C-2.01 2 -1.02 2 0 2 C0 1.34 0 0.68 0 0 Z " fill="#141D25" transform="translate(557,502)"/>
<path d="M0 0 C3 2 3 2 3.75 4 C4 6 4 6 3 8 C2.01 8 1.02 8 0 8 C-0.66 5.69 -1.32 3.38 -2 1 C-1.34 0.67 -0.68 0.34 0 0 Z " fill="#EFF1F0" transform="translate(643,496)"/>
<path d="M0 0 C0 2 0 4 0 6 C-2.9826906 7.52448631 -5.818202 8.93940067 -9 10 C-7.84906278 6.54718834 -6.6794007 5.61917837 -3.9375 3.3125 C-2.83728516 2.37857422 -2.83728516 2.37857422 -1.71484375 1.42578125 C-1.14894531 0.95527344 -0.58304687 0.48476563 0 0 Z " fill="#09131B" transform="translate(491,767)"/>
<path d="M0 0 C3.48763093 1.74381547 6.03368051 3.52806709 9 6 C8.67 6.66 8.34 7.32 8 8 C6.68 8 5.36 8 4 8 C2.68 5.36 1.36 2.72 0 0 Z " fill="#0D1B27" transform="translate(814,700)"/>
<path d="M0 0 C2.31 0.33 4.62 0.66 7 1 C7 1.99 7 2.98 7 4 C4 6 4 6 2 7 C0 4 0 4 0 0 Z " fill="#F0F1F1" transform="translate(385,513)"/>
<path d="M0 0 C3.465 1.98 3.465 1.98 7 4 C7 4.99 7 5.98 7 7 C3.125 6.125 3.125 6.125 2 5 C0.67405895 4.63837971 -0.65938457 4.30271961 -2 4 C-1.34 2.68 -0.68 1.36 0 0 Z " fill="#EFF1F2" transform="translate(547,361)"/>
<path d="M0 0 C0.556875 0.350625 1.11375 0.70125 1.6875 1.0625 C4.53886783 2.21845993 6.08517222 1.80967438 9 1 C8.34 2.32 7.68 3.64 7 5 C7.99 6.32 8.98 7.64 10 9 C9.67 9.66 9.34 10.32 9 11 C7.49703315 9.35687553 5.99769719 7.71042916 4.5 6.0625 C3.6646875 5.14597656 2.829375 4.22945313 1.96875 3.28515625 C0 1 0 1 0 0 Z " fill="#0C1620" transform="translate(578,320)"/>
<path d="M0 0 C-0.73605469 0.26554687 -1.47210937 0.53109375 -2.23046875 0.8046875 C-3.20628906 1.15789062 -4.18210937 1.51109375 -5.1875 1.875 C-6.15042969 2.22304688 -7.11335937 2.57109375 -8.10546875 2.9296875 C-10.75634859 3.90990488 -13.3813098 4.93720434 -16 6 C-14.99165688 3.26387795 -14.43210006 2.20852216 -11.7578125 0.91796875 C-10.45457031 0.55638672 -10.45457031 0.55638672 -9.125 0.1875 C-8.26132812 -0.06644531 -7.39765625 -0.32039063 -6.5078125 -0.58203125 C-3.94195142 -1.00967476 -2.43603141 -0.83278283 0 0 Z " fill="#0E141C" transform="translate(552,315)"/>
<path d="M0 0 C1.46015291 0.28241641 2.91809793 0.57626614 4.375 0.875 C5.18710937 1.03742188 5.99921875 1.19984375 6.8359375 1.3671875 C9 2 9 2 11 4 C9.1875 5.0625 9.1875 5.0625 7 6 C3.65393765 4.88464588 2.33485932 3.57639649 0 1 C0 0.67 0 0.34 0 0 Z " fill="#0E1820" transform="translate(560,272)"/>
<path d="M0 0 C-0.99 0.598125 -1.98 1.19625 -3 1.8125 C-3.99 2.534375 -4.98 3.25625 -6 4 C-6 4.99 -6 5.98 -6 7 C-7.65 6.67 -9.3 6.34 -11 6 C-9.47947256 2.95894512 -8.51878821 1.28533352 -5.5 -0.375 C-3 -1 -3 -1 0 0 Z " fill="#0D1922" transform="translate(494,263)"/>
<path d="M0 0 C0.33 1.98 0.66 3.96 1 6 C-5.15234375 5.4140625 -5.15234375 5.4140625 -7 5 C-7.33 4.34 -7.66 3.68 -8 3 C-6.68 2.67 -5.36 2.34 -4 2 C-4.66 1.67 -5.32 1.34 -6 1 C-3.92446352 0.4465236 -2.15634036 0 0 0 Z " fill="#111D26" transform="translate(587,248)"/>
<path d="M0 0 C2.2477975 2.05233685 3.0022242 3.00667261 4 6 C2.35 7.65 0.7 9.3 -1 11 C-1.33 10.34 -1.66 9.68 -2 9 C-1.34 8.01 -0.68 7.02 0 6 C-0.27942455 4.32345271 -0.60828247 2.65391846 -1 1 C-0.67 0.67 -0.34 0.34 0 0 Z " fill="#ECEDEE" transform="translate(491,732)"/>
<path d="M0 0 C2.34058637 2.12780579 3.70700306 4.11562221 5 7 C4.34 7.66 3.68 8.32 3 9 C2.01 9 1.02 9 0 9 C-1 6 -1 6 -0.0625 3.8125 C0.4634375 2.9153125 0.4634375 2.9153125 1 2 C0.34 1.67 -0.32 1.34 -1 1 C-0.67 0.67 -0.34 0.34 0 0 Z " fill="#EAEEF1" transform="translate(330,700)"/>
<path d="M0 0 C0.66 0.66 1.32 1.32 2 2 C2.99 1.34 3.98 0.68 5 0 C5 3 5 3 3.46875 4.60546875 C1.64583333 6.0703125 -0.17708333 7.53515625 -2 9 C-1.34 6.03 -0.68 3.06 0 0 Z " fill="#D7DBDD" transform="translate(267,692)"/>
<path d="M0 0 C1.32 0.66 2.64 1.32 4 2 C-0.455 4.97 -0.455 4.97 -5 8 C-4.67 6.35 -4.34 4.7 -4 3 C-2.68 2.67 -1.36 2.34 0 2 C0 1.34 0 0.68 0 0 Z " fill="#E3E8EB" transform="translate(582,572)"/>
<path d="M0 0 C0.99 0.33 1.98 0.66 3 1 C1.8125 3.5 1.8125 3.5 0 6 C-2.6875 6.3125 -2.6875 6.3125 -5 6 C-3.63016497 2.83884224 -3.0109362 2.0072908 0 0 Z " fill="#121C23" transform="translate(516,448)"/>
<path d="M0 0 C0.66 0.33 1.32 0.66 2 1 C-0.73152399 5.72763768 -2.93126149 7.92642516 -8 10 C-6.34908222 5.70761377 -3.26245434 3.1206085 0 0 Z " fill="#121921" transform="translate(586,369)"/>
<path d="M0 0 C2.97 0.495 2.97 0.495 6 1 C5.67 2.65 5.34 4.3 5 6 C3.02 5.01 1.04 4.02 -1 3 C-0.67 2.01 -0.34 1.02 0 0 Z " fill="#141F28" transform="translate(634,296)"/>
<path d="M0 0 C-0.99 0.33 -1.98 0.66 -3 1 C-3.73323796 3.01508358 -3.73323796 3.01508358 -4 5 C-7.37992169 4.46228519 -10.68737889 3.85696068 -14 3 C-4.58997722 -0.44419134 -4.58997722 -0.44419134 0 0 Z " fill="#0B141B" transform="translate(458,274)"/>
<path d="M0 0 C1.65 0.99 3.3 1.98 5 3 C4.67 3.66 4.34 4.32 4 5 C1.67843403 5.40729228 -0.6568787 5.74438677 -3 6 C-2.67 4.68 -2.34 3.36 -2 2 C-1.34 2 -0.68 2 0 2 C0 1.34 0 0.68 0 0 Z " fill="#151F27" transform="translate(356,275)"/>
<path d="M0 0 C2.97 0.495 2.97 0.495 6 1 C5.67 2.65 5.34 4.3 5 6 C3.35 5.67 1.7 5.34 0 5 C0.66 4.67 1.32 4.34 2 4 C2 3.34 2 2.68 2 2 C1.34 2 0.68 2 0 2 C0 1.34 0 0.68 0 0 Z " fill="#121E28" transform="translate(510,256)"/>
<path d="M0 0 C4.29 0 8.58 0 13 0 C10.50494038 2.49505962 9.32671112 2.35948376 5.875 2.625 C4.96492187 2.69976563 4.05484375 2.77453125 3.1171875 2.8515625 C2.06917969 2.92503906 2.06917969 2.92503906 1 3 C0.67 2.01 0.34 1.02 0 0 Z " fill="#142028" transform="translate(531,781)"/>
<path d="M0 0 C0.33 0.99 0.66 1.98 1 3 C1.99 3.33 2.98 3.66 4 4 C2.35 4.33 0.7 4.66 -1 5 C-0.67 5.99 -0.34 6.98 0 8 C-2.475 9.485 -2.475 9.485 -5 11 C-3.55049545 7.2089881 -1.84827434 3.6125362 0 0 Z " fill="#0D151D" transform="translate(724,758)"/>
<path d="M0 0 C-0.33 1.32 -0.66 2.64 -1 4 C-1.99 4 -2.98 4 -4 4 C-4 4.99 -4 5.98 -4 7 C-4.99 7.33 -5.98 7.66 -7 8 C-7.66 7.34 -8.32 6.68 -9 6 C-7.8803014 4.99406757 -6.7540588 3.9954151 -5.625 3 C-4.68527344 2.1646875 -4.68527344 2.1646875 -3.7265625 1.3125 C-2 0 -2 0 0 0 Z " fill="#131D25" transform="translate(604,732)"/>
<path d="M0 0 C4.95 0.33 9.9 0.66 15 1 C15 1.33 15 1.66 15 2 C13.77023437 2.09087891 13.77023437 2.09087891 12.515625 2.18359375 C10.89914062 2.30927734 10.89914062 2.30927734 9.25 2.4375 C7.64898438 2.55931641 7.64898438 2.55931641 6.015625 2.68359375 C3.56320038 2.94090773 1.36078709 3.31812218 -1 4 C-0.67 2.68 -0.34 1.36 0 0 Z " fill="#CECFCF" transform="translate(786,693)"/>
<path d="M0 0 C1.65 1.65 3.3 3.3 5 5 C4.01 5.66 3.02 6.32 2 7 C1.67 6.67 1.34 6.34 1 6 C0.34 6.66 -0.32 7.32 -1 8 C-1 7.34 -1 6.68 -1 6 C-1.66 5.67 -2.32 5.34 -3 5 C-2.01 4.67 -1.02 4.34 0 4 C0 2.68 0 1.36 0 0 Z " fill="#EBEFF1" transform="translate(315,678)"/>
<path d="M0 0 C1.32 0.66 2.64 1.32 4 2 C3.01 3.485 3.01 3.485 2 5 C2 5.66 2 6.32 2 7 C1.01 7.495 1.01 7.495 0 8 C0 7.34 0 6.68 0 6 C-0.66 6 -1.32 6 -2 6 C-2.33 6.66 -2.66 7.32 -3 8 C-2.45276317 4.62537285 -1.9451 2.91765 0 0 Z " fill="#EEEFF0" transform="translate(252,679)"/>
<path d="M0 0 C3.2826932 1.49076434 5.93077441 3.38620321 8.75 5.625 C9.94882812 6.57246094 9.94882812 6.57246094 11.171875 7.5390625 C11.77515625 8.02117188 12.3784375 8.50328125 13 9 C8.9327818 9 7.43922761 8.407089 4.4375 5.625 C2 3 2 3 0 0 Z " fill="#0E161C" transform="translate(434,571)"/>
<path d="M0 0 C1.11375 0.3403125 1.11375 0.3403125 2.25 0.6875 C-0.27788007 3.48622437 -1.95411134 5.14523019 -5.75 5.6875 C-6.08 4.6975 -6.41 3.7075 -6.75 2.6875 C-4.29511132 0.41445492 -3.41240272 -0.38777304 0 0 Z " fill="#121C25" transform="translate(548.75,567.3125)"/>
<path d="M0 0 C1.66666667 1.66666667 3.33333333 3.33333333 5 5 C5.8971875 5.8353125 5.8971875 5.8353125 6.8125 6.6875 C8 8 8 8 8 10 C7.01 9.67 6.02 9.34 5 9 C5 8.34 5 7.68 5 7 C4.01 7 3.02 7 2 7 C0 4 0 4 0 0 Z " fill="#0C141D" transform="translate(528,508)"/>
<path d="M0 0 C0.33 0.66 0.66 1.32 1 2 C0.01 2.66 -0.98 3.32 -2 4 C-2.33 4.99 -2.66 5.98 -3 7 C-4.32 6.67 -5.64 6.34 -7 6 C-7 5.01 -7 4.02 -7 3 C-4.69 2.01 -2.38 1.02 0 0 Z " fill="#E8ECEC" transform="translate(487,393)"/>
<path d="M0 0 C5.625 -0.25 5.625 -0.25 9 2 C9 2.66 9 3.32 9 4 C7.1875 4.625 7.1875 4.625 5 5 C4.01 4.34 3.02 3.68 2 3 C2.33 2.34 2.66 1.68 3 1 C2.01 0.67 1.02 0.34 0 0 Z " fill="#EEF0F1" transform="translate(524,257)"/>
<path d="M0 0 C1.10493755 3.31481265 1.05432279 5.66131116 0 9 C-0.99 9.66 -1.98 10.32 -3 11 C-2.25 3.375 -2.25 3.375 0 0 Z " fill="#0C151E" transform="translate(207,711)"/>
<path d="M0 0 C3.40364888 1.39935885 4.90806188 2.87004732 6.8125 6 C7.25207031 6.70125 7.69164062 7.4025 8.14453125 8.125 C8.42683594 8.74375 8.70914062 9.3625 9 10 C8.67 10.66 8.34 11.32 8 12 C7.03760548 10.75312408 6.08025991 9.50235031 5.125 8.25 C4.59132813 7.55390625 4.05765625 6.8578125 3.5078125 6.140625 C2.10761086 4.15277397 1.02144735 2.20156614 0 0 Z " fill="#0B121A" transform="translate(307,699)"/>
<path d="M0 0 C-7.5 5 -7.5 5 -12 5 C-12 4.34 -12 3.68 -12 3 C-4.71428571 -0.42857143 -4.71428571 -0.42857143 0 0 Z " fill="#0A151D" transform="translate(230,696)"/>
<path d="M0 0 C0.99 0.33 1.98 0.66 3 1 C1.55746343 4.36591866 -0.33264727 6.51047079 -3 9 C-3.26218749 5.85375007 -3.24754367 4.38162983 -1.5 1.6875 C-1.005 1.130625 -0.51 0.57375 0 0 Z " fill="#E2E6E9" transform="translate(830,690)"/>
<path d="M0 0 C2.475 0.495 2.475 0.495 5 1 C6.125 7.625 6.125 7.625 5 11 C4.16151196 9.54462432 3.32936066 8.08559627 2.5 6.625 C1.80390625 5.40683594 1.80390625 5.40683594 1.09375 4.1640625 C0 2 0 2 0 0 Z " fill="#0B151F" transform="translate(488,688)"/>
<path d="M0 0 C2.10633718 1.70828921 2.93801608 2.52148416 3.29296875 5.26171875 C3.25816406 6.06222656 3.22335937 6.86273438 3.1875 7.6875 C3.16042969 8.49574219 3.13335937 9.30398438 3.10546875 10.13671875 C3.07066406 10.75160156 3.03585937 11.36648438 3 12 C0.50494038 9.50494038 0.64051624 8.32671112 0.375 4.875 C0.30023438 3.96492188 0.22546875 3.05484375 0.1484375 2.1171875 C0.09945313 1.41851562 0.05046875 0.71984375 0 0 Z " fill="#111921" transform="translate(380,436)"/>
<path d="M0 0 C0.66 0.99 1.32 1.98 2 3 C1.67 3.99 1.34 4.98 1 6 C1.33 6.66 1.66 7.32 2 8 C1.34 8.66 0.68 9.32 0 10 C-0.99 9.34 -1.98 8.68 -3 8 C-2.67 7.01 -2.34 6.02 -2 5 C-1.835 4.29875 -1.67 3.5975 -1.5 2.875 C-1 1 -1 1 0 0 Z " fill="#ECEEEE" transform="translate(483,410)"/>
<path d="M0 0 C2.3125 -0.25 2.3125 -0.25 5 0 C6.8125 2 6.8125 2 8 4 C6.02 4.99 6.02 4.99 4 6 C3.71125 5.38125 3.4225 4.7625 3.125 4.125 C2.06279958 1.86674235 2.06279958 1.86674235 0 0 Z " fill="#E5E8E9" transform="translate(513,400)"/>
<path d="M0 0 C2.97 0.495 2.97 0.495 6 1 C5.67 2.32 5.34 3.64 5 5 C3.68 5.33 2.36 5.66 1 6 C0.67 4.02 0.34 2.04 0 0 Z " fill="#EDF0F1" transform="translate(819,771)"/>
<path d="M0 0 C-0.33 0.99 -0.66 1.98 -1 3 C-3.5625 4.1875 -3.5625 4.1875 -6 5 C-6.33 4.67 -6.66 4.34 -7 4 C-7.66 4.66 -8.32 5.32 -9 6 C-9.33 5.01 -9.66 4.02 -10 3 C-3.375 0 -3.375 0 0 0 Z " fill="#E2E7E8" transform="translate(785,678)"/>
<path d="M0 0 C2.6875 0.875 2.6875 0.875 5 2 C5 2.66 5 3.32 5 4 C5.66 4.33 6.32 4.66 7 5 C4 6 4 6 2.17578125 5.22265625 C0.45052083 4.1484375 -1.27473958 3.07421875 -3 2 C-2.01 1.34 -1.02 0.68 0 0 Z " fill="#E9EEF0" transform="translate(485,601)"/>
<path d="M0 0 C0.66 0.33 1.32 0.66 2 1 C1.4375 2.875 1.4375 2.875 0 5 C-3.625 6.25 -3.625 6.25 -7 7 C-5.66667905 3.00003714 -3.5042173 2.16217663 0 0 Z " fill="#0B121A" transform="translate(572,583)"/>
<path d="M0 0 C0.33 0.66 0.66 1.32 1 2 C1.99 1.67 2.98 1.34 4 1 C4.33 2.32 4.66 3.64 5 5 C3.02 5.33 1.04 5.66 -1 6 C-1.33 5.01 -1.66 4.02 -2 3 C-1.34 2.01 -0.68 1.02 0 0 Z " fill="#ECEDED" transform="translate(618,502)"/>
<path d="M0 0 C0.33 1.98 0.66 3.96 1 6 C-0.32 6.99 -1.64 7.98 -3 9 C-3.66 7.35 -4.32 5.7 -5 4 C-1.125 0 -1.125 0 0 0 Z " fill="#111F2B" transform="translate(527,400)"/>
<path d="M0 0 C0.66 0 1.32 0 2 0 C3.38226016 2.76452033 3.09525387 5.0461363 3.0625 8.125 C3.05347656 9.22070312 3.04445313 10.31640625 3.03515625 11.4453125 C3.02355469 12.28835938 3.01195312 13.13140625 3 14 C2.67 14 2.34 14 2 14 C1.34 9.38 0.68 4.76 0 0 Z " fill="#0C141E" transform="translate(591,338)"/>
<path d="M0 0 C0.99 0 1.98 0 3 0 C3 1.98 3 3.96 3 6 C1.02 6 -0.96 6 -3 6 C-2.01 4.02 -1.02 2.04 0 0 Z " fill="#EBEFF2" transform="translate(529,329)"/>
<path d="M0 0 C-5.625 2 -5.625 2 -9 2 C-9 2.66 -9 3.32 -9 4 C-10.32 4 -11.64 4 -13 4 C-13 3.34 -13 2.68 -13 2 C-11.5882217 1.46605821 -10.17029756 0.94834896 -8.75 0.4375 C-7.96109375 0.14746094 -7.1721875 -0.14257812 -6.359375 -0.44140625 C-3.80896548 -1.04522837 -2.44677771 -0.8473932 0 0 Z " fill="#0C141B" transform="translate(508,259)"/>
<path d="M0 0 C1.98 1.65 3.96 3.3 6 5 C5.67 5.66 5.34 6.32 5 7 C2.37812506 5.95125002 1.20628639 5.35068687 -0.25 2.875 C-0.4975 2.25625 -0.745 1.6375 -1 1 C-0.67 0.67 -0.34 0.34 0 0 Z " fill="#283038" transform="translate(757,762)"/>
<path d="M0 0 C1.98 1.65 3.96 3.3 6 5 C5.01 6.485 5.01 6.485 4 8 C2.35 6.68 0.7 5.36 -1 4 C-0.67 2.68 -0.34 1.36 0 0 Z " fill="#E7ECEF" transform="translate(267,760)"/>
<path d="M0 0 C2.91488977 2.6234008 4.88503898 5.71816394 7 9 C6.67 9.66 6.34 10.32 6 11 C3.5 8.6875 3.5 8.6875 1 6 C1 5.01 1 4.02 1 3 C0.34 2.67 -0.32 2.34 -1 2 C-0.67 1.34 -0.34 0.68 0 0 Z " fill="#091118" transform="translate(186,751)"/>
<path d="M0 0 C0.66 0.33 1.32 0.66 2 1 C2 1.66 2 2.32 2 3 C2.99 3.33 3.98 3.66 5 4 C5 5.32 5 6.64 5 8 C4.34 8 3.68 8 3 8 C2.67 7.34 2.34 6.68 2 6 C-0.02463255 5.34786708 -0.02463255 5.34786708 -2 5 C-2 4.34 -2 3.68 -2 3 C-1.34 2.67 -0.68 2.34 0 2 C0 1.34 0 0.68 0 0 Z " fill="#232D34" transform="translate(765,722)"/>
<path d="M0 0 C0.66 0.99 1.32 1.98 2 3 C0.35 4.65 -1.3 6.3 -3 8 C-3.99 7.01 -4.98 6.02 -6 5 C-5.34 5 -4.68 5 -4 5 C-3.67 4.34 -3.34 3.68 -3 3 C-2.01 2.67 -1.02 2.34 0 2 C0 1.34 0 0.68 0 0 Z " fill="#ECEDED" transform="translate(488,719)"/>
<path d="M0 0 C1.65 1.65 3.3 3.3 5 5 C4.67 5.66 4.34 6.32 4 7 C2.35 6.67 0.7 6.34 -1 6 C-1.33 5.01 -1.66 4.02 -2 3 C-1.34 3 -0.68 3 0 3 C0 2.01 0 1.02 0 0 Z " fill="#17222B" transform="translate(502,580)"/>
<path d="M0 0 C0.66 0.33 1.32 0.66 2 1 C2 1.99 2 2.98 2 4 C0.02 4.99 0.02 4.99 -2 6 C-2 5.01 -2 4.02 -2 3 C-2.66 2.67 -3.32 2.34 -4 2 C-2.125 0.9375 -2.125 0.9375 0 0 Z " fill="#101C27" transform="translate(566,553)"/>
<path d="M0 0 C0.33 0 0.66 0 1 0 C1.19448477 2.12437212 1.38038289 4.24953191 1.5625 6.375 C1.66691406 7.55835938 1.77132812 8.74171875 1.87890625 9.9609375 C2 13 2 13 1 15 C0.34 15 -0.32 15 -1 15 C-0.67 10.05 -0.34 5.1 0 0 Z " fill="#27313A" transform="translate(592,487)"/>
<path d="M0 0 C0.99 0.66 1.98 1.32 3 2 C0.69 4.64 -1.62 7.28 -4 10 C-4.66 9.01 -5.32 8.02 -6 7 C-5.360625 6.38125 -4.72125 5.7625 -4.0625 5.125 C-1.96116416 3.17402388 -1.96116416 3.17402388 -1 1 C-0.67 0.67 -0.34 0.34 0 0 Z " fill="#0E141A" transform="translate(474,397)"/>
<path d="M0 0 C0.66 0.33 1.32 0.66 2 1 C-1.14591933 3.80045623 -3.067064 4.35261589 -7.25 4.1875 C-8.14203125 4.16042969 -9.0340625 4.13335937 -9.953125 4.10546875 C-10.96632813 4.05326172 -10.96632813 4.05326172 -12 4 C-12 3.67 -12 3.34 -12 3 C-11.071875 2.855625 -10.14375 2.71125 -9.1875 2.5625 C-5.99274889 2.07899889 -5.99274889 2.07899889 -3 1 C-2.01 0.67 -1.02 0.34 0 0 Z " fill="#10161C" transform="translate(566,361)"/>
<path d="M0 0 C3.6875 0.875 3.6875 0.875 7 2 C5 4 5 4 2 4.25 C-1 4 -1 4 -3 2 C-2.01 1.34 -1.02 0.68 0 0 Z " fill="#EBEEF0" transform="translate(521,233)"/>
<path d="M0 0 C4.455 1.98 4.455 1.98 9 4 C8.01 4.33 7.02 4.66 6 5 C5.67 5.66 5.34 6.32 5 7 C3 6 3 6 2 3 C1.34 2.67 0.68 2.34 0 2 C0 1.34 0 0.68 0 0 Z " fill="#0E161F" transform="translate(772,775)"/>
<path d="M0 0 C0.33 0.99 0.66 1.98 1 3 C0.01 3.99 -0.98 4.98 -2 6 C-2 5.34 -2 4.68 -2 4 C-3.98 4 -5.96 4 -8 4 C-5.33440687 2.22293791 -2.9719385 1.12451727 0 0 Z " fill="#0C161F" transform="translate(480,776)"/>
<path d="M0 0 C2.97 0 5.94 0 9 0 C8.67 1.32 8.34 2.64 8 4 C5.69 3.67 3.38 3.34 1 3 C0.67 2.01 0.34 1.02 0 0 Z " fill="#EAEDF1" transform="translate(219,777)"/>
<path d="M0 0 C0.33 0.66 0.66 1.32 1 2 C1.99 2.33 2.98 2.66 4 3 C3.67 3.66 3.34 4.32 3 5 C2.67 5 2.34 5 2 5 C1.67 7.97 1.34 10.94 1 14 C0.67 14 0.34 14 0 14 C0 9.38 0 4.76 0 0 Z " fill="#2F3A3F" transform="translate(836,741)"/>
<path d="M0 0 C3.36591866 1.44253657 5.51047079 3.33264727 8 6 C6.33333333 6 4.66666667 6 3 6 C3 5.34 3 4.68 3 4 C2.34 4 1.68 4 1 4 C0.67 2.68 0.34 1.36 0 0 Z " fill="#E2E8EA" transform="translate(449,552)"/>
<path d="M0 0 C1.485 0.99 1.485 0.99 3 2 C4.32567199 2.68177416 5.65753688 3.35191436 7 4 C7 4.66 7 5.32 7 6 C5.35 6.33 3.7 6.66 2 7 C0.5393715 4.35261084 0 3.10551666 0 0 Z " fill="#E9EEEF" transform="translate(409,513)"/>
<path d="M0 0 C0.66 0.33 1.32 0.66 2 1 C0.02 3.97 -1.96 6.94 -4 10 C-4.33 8.68 -4.66 7.36 -5 6 C-4.01 5.67 -3.02 5.34 -2 5 C-1.33820153 3.01954441 -1.33820153 3.01954441 -1 1 C-0.67 0.67 -0.34 0.34 0 0 Z " fill="#0E161D" transform="translate(618,499)"/>
<path d="M0 0 C0.99 0 1.98 0 3 0 C3.125 3.375 3.125 3.375 3 7 C2.34 7.66 1.68 8.32 1 9 C0.67 6.03 0.34 3.06 0 0 Z " fill="#E6EBE9" transform="translate(356,440)"/>
<path d="M0 0 C0.33 0.99 0.66 1.98 1 3 C0.01 3.66 -0.98 4.32 -2 5 C-1.34 5.33 -0.68 5.66 0 6 C-1.65 6.33 -3.3 6.66 -5 7 C-5.33 5.68 -5.66 4.36 -6 3 C-4.02 2.01 -2.04 1.02 0 0 Z " fill="#E2E6E8" transform="translate(505,433)"/>
<path d="M0 0 C2 3.75 2 3.75 2 6 C-0.9375 5.625 -0.9375 5.625 -4 5 C-4.33 4.34 -4.66 3.68 -5 3 C-4.360625 2.87625 -3.72125 2.7525 -3.0625 2.625 C-2.0415625 2.315625 -2.0415625 2.315625 -1 2 C-0.67 1.34 -0.34 0.68 0 0 Z " fill="#EFF1F3" transform="translate(566,329)"/>
<path d="M0 0 C-1.75 2.0625 -1.75 2.0625 -4 4 C-6.25 3.75 -6.25 3.75 -8 3 C-8 2.34 -8 1.68 -8 1 C-2.25 -1.125 -2.25 -1.125 0 0 Z " fill="#E4E9EB" transform="translate(454,250)"/>
<path d="M0 0 C5.75 1.75 5.75 1.75 8 4 C6.02 4.33 4.04 4.66 2 5 C1.01 3.68 0.02 2.36 -1 1 C-0.67 0.67 -0.34 0.34 0 0 Z " fill="#0F1922" transform="translate(210,776)"/>
<path d="M0 0 C0.66 0 1.32 0 2 0 C1.79375 0.61875 1.5875 1.2375 1.375 1.875 C1.25125 2.57625 1.1275 3.2775 1 4 C1.66 4.66 2.32 5.32 3 6 C1.02 6.99 1.02 6.99 -1 8 C-2.2077558 4.37673261 -1.54311128 3.35853631 0 0 Z " fill="#EAEDEE" transform="translate(813,760)"/>
<path d="M0 0 C4.92307692 4.18461538 4.92307692 4.18461538 5.3125 8.3125 C5.209375 9.199375 5.10625 10.08625 5 11 C4.34 10.67 3.68 10.34 3 10 C2.63128912 8.34080104 2.30404678 6.67225729 2 5 C1.36562656 3.3207762 0.70710678 1.64991582 0 0 Z " fill="#0C1219" transform="translate(813,742)"/>
<path d="M0 0 C0.33 0.99 0.66 1.98 1 3 C0.01 4.485 0.01 4.485 -1 6 C-1.66 6 -2.32 6 -3 6 C-3.33 5.01 -3.66 4.02 -4 3 C-4.66 2.34 -5.32 1.68 -6 1 C-3.92446352 0.4465236 -2.15634036 0 0 0 Z " fill="#EEF0F1" transform="translate(375,697)"/>
<path d="M0 0 C-3.68734758 2.45823172 -6.69699971 3.01242616 -11 4 C-10.67 3.01 -10.34 2.02 -10 1 C-6.52674819 -0.1577506 -3.63932552 -0.06866652 0 0 Z " fill="#0B141C" transform="translate(788,676)"/>
<path d="M0 0 C0 0.99 0 1.98 0 3 C-1.64821244 4.03013277 -3.31503702 5.03114628 -5 6 C-5 6.66 -5 7.32 -5 8 C-5.99 7.67 -6.98 7.34 -8 7 C-6.5361389 2.60841671 -4.02168662 2.12052567 0 0 Z " fill="#0C141A" transform="translate(554,595)"/>
<path d="M0 0 C4.2742558 1.5830577 6.26531794 4.50568404 9 8 C8.67 8.66 8.34 9.32 8 10 C6.66070495 8.71451591 5.32871357 7.42141845 4 6.125 C2.88625 5.04605469 2.88625 5.04605469 1.75 3.9453125 C0 2 0 2 0 0 Z " fill="#040D14" transform="translate(423,525)"/>
<path d="M0 0 C1.32 0.66 2.64 1.32 4 2 C4 2.66 4 3.32 4 4 C2 5.625 2 5.625 0 7 C-1.125 2.25 -1.125 2.25 0 0 Z " fill="#ECEFF1" transform="translate(577,463)"/>
<path d="M0 0 C0.99 0.99 1.98 1.98 3 3 C2.67 3.99 2.34 4.98 2 6 C1.34 6 0.68 6 0 6 C0 5.34 0 4.68 0 4 C-0.99 4.33 -1.98 4.66 -3 5 C-3.33 4.34 -3.66 3.68 -4 3 C-2.68 2.67 -1.36 2.34 0 2 C0 1.34 0 0.68 0 0 Z " fill="#EEF1F3" transform="translate(485,432)"/>
<path d="M0 0 C2 2 2 2 2.265625 3.875 C2.26046875 4.57625 2.2553125 5.2775 2.25 6 C2.25515625 6.70125 2.2603125 7.4025 2.265625 8.125 C2 10 2 10 0 12 C-1.125 6.25 -1.125 6.25 0 4 C0 2.68 0 1.36 0 0 Z " fill="#091015" transform="translate(507,418)"/>
<path d="M0 0 C1.98 0.66 3.96 1.32 6 2 C2.86501708 3.85776765 0.62528568 4.20140476 -3 4 C-3.33 3.01 -3.66 2.02 -4 1 C-2.68 1.33 -1.36 1.66 0 2 C0 1.34 0 0.68 0 0 Z " fill="#EBEFF1" transform="translate(422,280)"/>
<path d="M0 0 C2.97 0.495 2.97 0.495 6 1 C6 1.66 6 2.32 6 3 C3.36 3 0.72 3 -2 3 C-1.34 2.01 -0.68 1.02 0 0 Z " fill="#E0E5E7" transform="translate(802,779)"/>
<path d="M0 0 C0 3 0 3 -2.375 5.6875 C-5 8 -5 8 -7 8 C-5.61918777 3.8575633 -3.40174442 2.67796901 0 0 Z " fill="#081019" transform="translate(272,767)"/>
<path d="M0 0 C1.485 0.99 1.485 0.99 3 2 C3.33 1.34 3.66 0.68 4 0 C4.99 0.99 5.98 1.98 7 3 C1.25 5 1.25 5 -1 5 C-0.67 3.35 -0.34 1.7 0 0 Z " fill="#E9EDF0" transform="translate(668,760)"/>
<path d="M0 0 C2.35953094 2.35953094 2.49141413 3.77895617 3 7 C2.01 7 1.02 7 0 7 C-0.66 5.02 -1.32 3.04 -2 1 C-1.34 0.67 -0.68 0.34 0 0 Z " fill="#EEF0F1" transform="translate(189,749)"/>
<path d="M0 0 C0.99 0 1.98 0 3 0 C3.33 1.65 3.66 3.3 4 5 C3.01 4.67 2.02 4.34 1 4 C1 4.66 1 5.32 1 6 C0.34 5.67 -0.32 5.34 -1 5 C-0.67 3.35 -0.34 1.7 0 0 Z " fill="#152029" transform="translate(762,721)"/>
<path d="M0 0 C2.97 0.495 2.97 0.495 6 1 C5.34 2.32 4.68 3.64 4 5 C1 4 1 4 -1 2 C-0.67 1.34 -0.34 0.68 0 0 Z " fill="#1F2D39" transform="translate(243,673)"/>
<path d="M0 0 C2.475 0.99 2.475 0.99 5 2 C3.75 3.5625 3.75 3.5625 2 5 C-0.1875 4.6875 -0.1875 4.6875 -2 4 C-1.34 3.67 -0.68 3.34 0 3 C0 2.01 0 1.02 0 0 Z " fill="#EEF0F1" transform="translate(474,570)"/>
<path d="M0 0 C0.7425 0.61875 1.485 1.2375 2.25 1.875 C4.48801188 3.60437281 6.43739987 4.86106661 9 6 C9 6.66 9 7.32 9 8 C4.56541027 6.6062718 2.12621626 4.39417765 -1 1 C-0.67 0.67 -0.34 0.34 0 0 Z " fill="#0C1319" transform="translate(461,558)"/>
<path d="M0 0 C0.33 1.32 0.66 2.64 1 4 C-3.75 5.125 -3.75 5.125 -6 4 C-6 3.34 -6 2.68 -6 2 C-2.25 0 -2.25 0 0 0 Z " fill="#101A24" transform="translate(575,521)"/>
<path d="M0 0 C0.66 0.66 1.32 1.32 2 2 C1.01 4.31 0.02 6.62 -1 9 C-1.66 8.67 -2.32 8.34 -3 8 C-2.67 6.02 -2.34 4.04 -2 2 C-1.34 2 -0.68 2 0 2 C0 1.34 0 0.68 0 0 Z " fill="#E8ECEF" transform="translate(652,485)"/>
<path d="M0 0 C1.33333333 0 2.66666667 0 4 0 C4 1.98 4 3.96 4 6 C3.01 6 2.02 6 1 6 C0.67 4.02 0.34 2.04 0 0 Z " fill="#222F37" transform="translate(664,450)"/>
<path d="M0 0 C1.485 0.99 1.485 0.99 3 2 C3.33 1.67 3.66 1.34 4 1 C4.33 1.66 4.66 2.32 5 3 C5.66 3.33 6.32 3.66 7 4 C4.6875 4.6875 4.6875 4.6875 2 5 C0.1875 3.5625 0.1875 3.5625 -1 2 C-0.67 1.34 -0.34 0.68 0 0 Z " fill="#18232B" transform="translate(473,393)"/>
<path d="M0 0 C0.33 0.99 0.66 1.98 1 3 C0.05125 3.309375 -0.8975 3.61875 -1.875 3.9375 C-4.86080408 4.87394742 -4.86080408 4.87394742 -7 6 C-5.52522876 2.59668175 -4.14385429 0 0 0 Z " fill="#E2E7E8" transform="translate(538,322)"/>
<path d="M0 0 C4.3177458 0.50797009 8.03302114 1.19682779 12 3 C8.45026831 4.1832439 6.60040463 3.90010116 3 3 C1.125 1.4375 1.125 1.4375 0 0 Z " fill="#0D1219" transform="translate(547,268)"/>
<path d="M0 0 C0.99 0.33 1.98 0.66 3 1 C2.67 1.99 2.34 2.98 2 4 C-1.375 4.125 -1.375 4.125 -5 4 C-5.66 3.34 -6.32 2.68 -7 2 C-4.03 2.495 -4.03 2.495 -1 3 C-0.67 2.01 -0.34 1.02 0 0 Z " fill="#131E27" transform="translate(637,266)"/>
<path d="M0 0 C0.99 0.33 1.98 0.66 3 1 C1.02 1.99 1.02 1.99 -1 3 C-1 3.66 -1 4.32 -1 5 C-3.475 4.01 -3.475 4.01 -6 3 C-4 2 -2 1 0 0 Z " fill="#E1E6E9" transform="translate(424,258)"/>
<path d="M0 0 C4.44870215 -0.39253254 7.14243493 0.84694043 11 3 C8.83032311 3.95465783 7.43671207 4.14401212 5.17578125 3.3984375 C3.4315257 2.64129615 1.71372869 1.82390802 0 1 C0 0.67 0 0.34 0 0 Z " fill="#111820" transform="translate(527,234)"/>
<path d="M0 0 C0.33 1.32 0.66 2.64 1 4 C-1.875 4.125 -1.875 4.125 -5 4 C-5.66 3.34 -6.32 2.68 -7 2 C-4.69 1.34 -2.38 0.68 0 0 Z " fill="#E8EBEE" transform="translate(502,233)"/>
<path d="M0 0 C2.61500768 2.36595933 4.38999603 4.86049226 6 8 C5.67 8.66 5.34 9.32 5 10 C3.5 8.6875 3.5 8.6875 2 7 C2 6.01 2 5.02 2 4 C1.34 3.67 0.68 3.34 0 3 C0 2.01 0 1.02 0 0 Z " fill="#09121A" transform="translate(580,762)"/>
<path d="M0 0 C2.475 0.99 2.475 0.99 5 2 C4.360625 2.12375 3.72125 2.2475 3.0625 2.375 C2.381875 2.58125 1.70125 2.7875 1 3 C0.67 3.66 0.34 4.32 0 5 C-0.99 5.495 -0.99 5.495 -2 6 C-2 4.68 -2 3.36 -2 2 C-1.34 2 -0.68 2 0 2 C0 1.34 0 0.68 0 0 Z " fill="#0F1C29" transform="translate(774,730)"/>
<path d="M0 0 C1.32 0.66 2.64 1.32 4 2 C3.34 3.32 2.68 4.64 2 6 C0.68 5.67 -0.64 5.34 -2 5 C-1.125 1.125 -1.125 1.125 0 0 Z " fill="#12202A" transform="translate(809,714)"/>
<path d="M0 0 C2.64 0 5.28 0 8 0 C8 0.66 8 1.32 8 2 C8.66 2.33 9.32 2.66 10 3 C8.5199159 2.88637738 7.04089926 2.75877092 5.5625 2.625 C4.73878906 2.55539062 3.91507813 2.48578125 3.06640625 2.4140625 C2.38449219 2.27742187 1.70257812 2.14078125 1 2 C0.67 1.34 0.34 0.68 0 0 Z " fill="#0F171F" transform="translate(787,713)"/>
<path d="M0 0 C0 0.99 0 1.98 0 3 C-3.33333333 6 -3.33333333 6 -6 6 C-6 4.68 -6 3.36 -6 2 C-4.7934375 1.7834375 -4.7934375 1.7834375 -3.5625 1.5625 C-1.07896294 1.25864751 -1.07896294 1.25864751 0 0 Z " fill="#0B1925" transform="translate(264,702)"/>
<path d="M0 0 C0.66 0 1.32 0 2 0 C2.33 1.32 2.66 2.64 3 4 C1.02 4.99 1.02 4.99 -1 6 C-1 3 -1 3 0 0 Z " fill="#E1E6EA" transform="translate(261,699)"/>
<path d="M0 0 C0.99 0.33 1.98 0.66 3 1 C3.33 1.99 3.66 2.98 4 4 C2.02 4.99 2.02 4.99 0 6 C-0.66 5.34 -1.32 4.68 -2 4 C-1.34 2.68 -0.68 1.36 0 0 Z " fill="#212B33" transform="translate(188,696)"/>
<path d="M0 0 C0.33 1.32 0.66 2.64 1 4 C0.01 4.33 -0.98 4.66 -2 5 C-2.66 4.67 -3.32 4.34 -4 4 C-4.33 4.66 -4.66 5.32 -5 6 C-5 5.01 -5 4.02 -5 3 C-2.5 1.3125 -2.5 1.3125 0 0 Z " fill="#ECF0F1" transform="translate(209,683)"/>
<path d="M0 0 C0.66 0.66 1.32 1.32 2 2 C1.01 3.485 1.01 3.485 0 5 C-2.475 4.01 -2.475 4.01 -5 3 C-4 1 -4 1 -2.0625 0.25 C-1.381875 0.1675 -0.70125 0.085 0 0 Z " fill="#EFF2F1" transform="translate(637,514)"/>
<path d="M0 0 C2 3 2 3 1.625 5.6875 C1.41875 6.450625 1.2125 7.21375 1 8 C0.67 7.34 0.34 6.68 0 6 C-0.99 5.67 -1.98 5.34 -3 5 C-2.67 4.34 -2.34 3.68 -2 3 C-1.67 3 -1.34 3 -1 3 C-0.67 2.01 -0.34 1.02 0 0 Z " fill="#0D1B26" transform="translate(604,513)"/>
<path d="M0 0 C0.66 0 1.32 0 2 0 C2.33 0.99 2.66 1.98 3 3 C2.34 3 1.68 3 1 3 C1 4.32 1 5.64 1 7 C0.01 6.67 -0.98 6.34 -2 6 C-1.34 4.02 -0.68 2.04 0 0 Z " fill="#111E29" transform="translate(549,495)"/>
<path d="M0 0 C1.65 0 3.3 0 5 0 C5 0.66 5 1.32 5 2 C5.99 2.33 6.98 2.66 8 3 C6.1875 3.625 6.1875 3.625 4 4 C3.01 3.34 2.02 2.68 1 2 C0.67 2.99 0.34 3.98 0 5 C-0.33 4.01 -0.66 3.02 -1 2 C-0.67 1.34 -0.34 0.68 0 0 Z " fill="#EDEFF1" transform="translate(546,474)"/>
<path d="M0 0 C0.99 0.33 1.98 0.66 3 1 C3.33 3.64 3.66 6.28 4 9 C3.34 9 2.68 9 2 9 C0.50178941 5.62902617 0 3.79557881 0 0 Z " fill="#101920" transform="translate(387,463)"/>
<path d="M0 0 C2.29013653 3.4352048 2.17842973 4.985331 2 9 C1.01 8.67 0.02 8.34 -1 8 C-0.67 5.36 -0.34 2.72 0 0 Z " fill="#0F181F" transform="translate(358,455)"/>
<path d="M0 0 C4.29 0.33 8.58 0.66 13 1 C13 1.33 13 1.66 13 2 C11.39679026 2.19551338 9.79237014 2.38111983 8.1875 2.5625 C7.29417969 2.66691406 6.40085937 2.77132813 5.48046875 2.87890625 C3 3 3 3 0 2 C0 1.34 0 0.68 0 0 Z " fill="#0B111A" transform="translate(379,433)"/>
<path d="M0 0 C0.33 0.66 0.66 1.32 1 2 C1.66 2.33 2.32 2.66 3 3 C3 3.99 3 4.98 3 6 C-1.875 4.25 -1.875 4.25 -3 2 C-2.01 1.34 -1.02 0.68 0 0 Z " fill="#121B24" transform="translate(513,392)"/>
<path d="M0 0 C1.65 0.33 3.3 0.66 5 1 C4.34 2.65 3.68 4.3 3 6 C1.68 5.67 0.36 5.34 -1 5 C-0.01 3.68 0.98 2.36 2 1 C1.34 0.67 0.68 0.34 0 0 Z " fill="#EAEDEE" transform="translate(585,361)"/>
<path d="M0 0 C-2.76223278 2.76223278 -5.20706617 2.57856291 -9 3 C-9.33 2.34 -9.66 1.68 -10 1 C-6.61981469 -0.04005702 -3.5219721 -0.08004482 0 0 Z " fill="#101922" transform="translate(436,254)"/>
<path d="M0 0 C0.33 0.99 0.66 1.98 1 3 C-4.75 7 -4.75 7 -7 7 C-7 6.34 -7 5.68 -7 5 C-5.824375 4.87625 -5.824375 4.87625 -4.625 4.75 C-1.85250896 4.27193661 -1.85250896 4.27193661 -0.6875 1.9375 C-0.460625 1.298125 -0.23375 0.65875 0 0 Z " fill="#0E141E" transform="translate(474,755)"/>
<path d="M0 0 C1.32 1.65 2.64 3.3 4 5 C3.67 5.66 3.34 6.32 3 7 C2.01 7 1.02 7 0 7 C-0.93423645 3.98968256 -1.04449911 3.13349732 0 0 Z " fill="#E4E7E9" transform="translate(595,750)"/>
<path d="M0 0 C2 1 2 1 4 3 C2.68 4.65 1.36 6.3 0 8 C-1.09658936 4.71023192 -0.79953138 3.28696233 0 0 Z " fill="#E7E9EA" transform="translate(354,724)"/>
<path d="M0 0 C0.66 0.33 1.32 0.66 2 1 C-0.475 4.465 -0.475 4.465 -3 8 C-3.66 7.67 -4.32 7.34 -5 7 C-3.35 4.69 -1.7 2.38 0 0 Z " fill="#0D131C" transform="translate(388,681)"/>
<path d="M0 0 C1.32 1.65 2.64 3.3 4 5 C1.69 5 -0.62 5 -3 5 C-2.625 3.0625 -2.625 3.0625 -2 1 C-1.34 0.67 -0.68 0.34 0 0 Z " fill="#0E1922" transform="translate(544,601)"/>
<path d="M0 0 C0.66 0.66 1.32 1.32 2 2 C-0.8125 4.0625 -0.8125 4.0625 -4 6 C-4.99 5.67 -5.98 5.34 -7 5 C-4.702779 3.25728062 -2.40133271 1.60088848 0 0 Z " fill="#0E1820" transform="translate(538,574)"/>
<path d="M0 0 C0.66 0.33 1.32 0.66 2 1 C1.67 2.65 1.34 4.3 1 6 C0.01 6.33 -0.98 6.66 -2 7 C-1.125 1.125 -1.125 1.125 0 0 Z " fill="#E4E8EA" transform="translate(578,513)"/>
<path d="M0 0 C0.66 0.66 1.32 1.32 2 2 C1.625 4.625 1.625 4.625 1 7 C-0.32 7.33 -1.64 7.66 -3 8 C-1.125 2.25 -1.125 2.25 0 0 Z " fill="#E8EAED" transform="translate(529,472)"/>
<path d="M0 0 C0.66 0.66 1.32 1.32 2 2 C1.01 2.99 0.02 3.98 -1 5 C-3.475 4.01 -3.475 4.01 -6 3 C-3.86437246 0.86437246 -2.93453261 0.36681658 0 0 Z " fill="#E7E9EA" transform="translate(491,408)"/>
<path d="M0 0 C0.99 1.32 1.98 2.64 3 4 C2.34 5.32 1.68 6.64 1 8 C-0.74627478 5.38058783 -1.38722388 3.96175123 -2 1 C-1.34 0.67 -0.68 0.34 0 0 Z " fill="#121A1F" transform="translate(571,341)"/>
<path d="M0 0 C2.97 0.33 5.94 0.66 9 1 C7 3 7 3 4.375 3.125 C3.59125 3.08375 2.8075 3.0425 2 3 C2 2.34 2 1.68 2 1 C1.34 0.67 0.68 0.34 0 0 Z " fill="#EDF1F2" transform="translate(561,315)"/>
<path d="M0 0 C-0.33 1.32 -0.66 2.64 -1 4 C-2.65 4 -4.3 4 -6 4 C-6.33 3.01 -6.66 2.02 -7 1 C-4 0 -4 0 0 0 Z " fill="#152129" transform="translate(576,276)"/>
</svg>
